<svg version="1" xmlns="http://www.w3.org/2000/svg" width="3120" height="3120" viewBox="0 0 2340.000000 2340.000000"><path d="M832.6 924c-2.1 5.3-2 7.6.5 11.1 2 2.9 2.1 2.9 12.7 2.9 5.9 0 12.4.5 14.4 1 4.6 1.3 9 6.3 11.6 13.2 1.1 2.9 37.6 109 81.2 235.8 43.6 126.8 79.6 230.9 80 231.4.9.9 34.8-5.1 36.6-6.5.6-.5 22.2-63.2 48-139.3 25.8-76.2 47.2-138.2 47.6-137.8.3.4 22.3 64 48.9 141.4 26.5 77.4 48.5 141.2 48.9 141.9.6.8 5.2.3 18.4-2.2 9.7-1.8 18-3.5 18.5-3.8.5-.3 36.2-104.3 79.5-231.1 43.2-126.8 79.4-231.6 80.4-232.9 5.9-8 14.7-11.1 31.4-11.1 10.2 0 10.8-.1 12.3-2.4 2-2.9 2.2-8.5.5-12.5l-1.2-3.1H1379l-2 3.2c-2.7 4.4-2.5 8 .6 11.7l2.6 3.1h14.7c13.2 0 15.1.2 19.1 2.2 2.4 1.3 5.2 3.5 6.3 4.9 4.8 6.6 8-3.7-61.1 200.9-35.1 104.2-64.1 190.1-64.3 190.8-.6 1.9-132.9-382.9-132.9-386.7 0-8.5 5.9-11.3 25.7-11.9l14.2-.4 1.5-3.3c2-4.1 2-6.6.2-11l-1.5-3.5h-137l-2.1 2.7c-2.3 3-2.1 7.2.6 12.5l1.5 2.8h11.2c15.7.1 20.6 2.6 25.9 13.5.8 1.6 11.5 32.6 23.8 68.8l22.2 65.8-42.3 126-42.4 126-2.1-6.3c-1.2-3.5-31-90.2-66.4-192.7-35.3-102.5-64.4-187.8-64.7-189.6-1.4-8.4 3.8-10.7 24.9-11.3l15.7-.4 1.5-3.3c2-4.1 2-6.6.2-11l-1.5-3.5H834.2l-1.6 4zM755 922.1c-47.8 2.9-81 13.4-122.5 38.8-31.5 19.2-57.5 41.4-95 81.3-9.8 10.4-17.8 15.8-31.2 21-18.8 7.3-5.2 6.5-174.3 11.3-84.4 2.4-167.4 4.8-184.5 5.3-28.8.9-31.2.8-33.5-.8-8.6-5.9-9.1-6-35-6-26.4 0-27.5.2-32.3 6l-2.6 3.1-11.8.2c-10.9.2-12.3.4-17.8 3.2-3.3 1.7-7.2 4.7-8.9 6.8l-3 3.8-.9 18.7c-.5 10.3-.6 43.4-.4 73.5l.5 54.9 2.9 4.6c2.2 3.7 4.3 5.4 9.5 8.1 6 3 7.6 3.4 17.9 3.9l11.4.5 4 4.5c6 6.9 7.5 7.2 31.5 7.2 23.2 0 24.4-.3 33.2-7.2l3.7-2.9 185.3 4.9 185.3 4.9 10 3.3c10.7 3.5 23 9.2 29.8 13.9 5.5 3.7 12.1 10.3 23.2 23 19.3 22 49.3 47.2 78.3 65.8 22.6 14.5 54.2 28.7 76.4 34.4 30.8 7.8 41.3 8.4 150.5 8.4 51.3-.1 93.4-.3 93.7-.6.3-.2-11.9-36.4-26.9-80.4-15.1-44-53.5-156.1-85.3-249l-57.9-169-4.9-.1c-2.7-.1-11 .2-18.4.7zM1585.3 940.9c-10.5 3.9-17.9 10.8-22.6 21.1-1.5 3.4-2.1 6.6-2.1 13 0 7.2.4 9.3 2.7 14.1 11.4 23.5 44 28.7 63.8 10.2 18.6-17.4 13.1-46-10.9-57.1-7.8-3.6-23-4.2-30.9-1.3zM1618.5 1098c-10.2 2.7-15.3 4.8-38.3 16.5-20.6 10.4-34.1 15.4-42.1 15.6-8.7.1-8.6.4 11.8 18.9l19.1 17.3v108.6c0 101.4-.1 108.8-1.8 112.1-3.1 6.2-6.8 7.4-22.8 7.8-13.9.4-14.2.5-15.3 2.9-1.4 3.1-1.4 9.5.1 12.8l1.1 2.5h67.7c52.7 0 67.9-.3 68.9-1.3 1.1-1 1.4-1 1.8 0 .4 1 14.9 1.3 68.3 1.3h67.9l1.5-2.2c2-2.8 2.1-10.7.1-13.5-1.4-1.9-2.6-2.1-15.2-2.5-15-.4-18.1-1.2-21.7-6.1-2.1-2.8-2.1-3.2-2.4-100.2l-.2-97.3 6.2-5.8c17.6-16.3 43.1-34.6 60.1-43.3 14.9-7.6 22.3-9.6 35.2-9.6 9.8 0 11.6.3 16.5 2.6 11.5 5.5 19.3 17.3 23.3 35.4 2.2 10 2.2 10.3 2.2 112 0 95.6-.1 102.2-1.8 105.2-3 5.6-6.5 6.7-22.3 7.1-15.7.5-15.8.5-16.9 7.9-.4 2.8-.1 4.6 1.4 7l2.1 3.3h134.9l2.2-3.2c2.9-4 2.8-9.2-.1-12.3-2-2.1-3-2.3-16.4-2.6-15.4-.4-17.8-1.2-21.3-6.6-1.7-2.5-1.8-9.7-2.4-109.8-.5-97.4-.7-107.7-2.3-114.5-4.3-18.3-11.3-31-24.5-44.1-8.4-8.3-10.9-10.1-20.1-14.7-14.1-6.9-19.8-8.3-36.6-8.9-12-.5-15.2-.2-22.2 1.5-28.6 7.3-54.6 28.3-86.3 70.1l-11 14.5.3-32.9c.4-35.9 0-31.9 6.5-51.8.5-1.5-.1-1.7-4.4-1.7-9.8 0-20 3.6-45.1 16.1-26.5 13-35.5 16.5-46.3 17.8-3.9.5-7.3 1.2-7.6 1.4-.2.3 8.1 8.3 18.6 17.9l19.1 17.3-.2 109.5c-.3 105.7-.4 109.6-2.2 112.3-3.4 5.1-6.8 6.1-22.1 6.5-7.7.2-14.5.8-15.1 1.3-.6.5-1.4.5-2 0-.5-.5-7-1.1-14.4-1.3-14.7-.4-17.8-1.3-21.4-6.1l-2.1-2.8v-268.4l2.9-9c1.5-5 3.1-9.8 3.3-10.8.5-1.5-.2-1.7-4.3-1.6-2.7 0-8 .8-11.9 1.9zM2155 1096.7c-1.9.2-8.7 1.6-15 2.9-30 6.7-55.2 20.4-76.5 41.9-13.3 13.3-22.5 26-30.4 42-20.1 40.6-23.2 86.4-8.5 128.6 15.6 45 47.7 79.2 90.3 96.4 37.7 15.1 84.6 15.5 122.1 1 51.1-19.7 87-62.6 99.2-118.5 2-9.2 2.3-13.3 2.3-33 0-24.2-1.1-31.9-7.1-51.3-3.6-11.7-15.2-34.6-23.1-45.6-22.3-31.2-55.7-52.9-94.8-61.8-9.6-2.1-13.9-2.5-33-2.8-12.1-.2-23.6-.1-25.5.2zm36.5 20.8c17.5 3.7 31.7 10.9 43.6 22.3 19.5 18.5 30 42.2 35.9 81.7 3.1 20.1 3.9 64.3 1.6 80.5-3.1 21.6-9.4 41.6-18.1 57.5-5.5 10-8 13.4-15.7 21.3-8.2 8.3-15.3 12.9-25.8 16.6-8.1 2.9-9.3 3.1-23.5 3-11.9 0-16.8-.5-23.7-2.2-47.2-11.7-73.3-50.3-81.3-120.2-2.6-22.1-1.7-57.1 1.9-73.8 10.4-48.4 33.1-80.1 63.2-87.7 7.7-1.9 30.7-1.4 41.9 1z"/></svg>