<svg id="Layer_1" data-name="Layer 1" xmlns="http://www.w3.org/2000/svg" viewBox="0 0 446.1 446.1"><defs><style>.cls-1,.cls-2{fill:#d40059;}.cls-2{fill-rule:evenodd;}</style></defs><title>wino-red</title><path class="cls-1" d="M444,210.52,440.41,202c-2.87-6.9-4.73-18.62-4.13-26.06l.73-9.22c.59-7.44-2.89-18.16-7.74-23.83l-6-7c-4.86-5.67-10.24-16.25-12-23.5l-2.15-9c-1.74-7.25-8.36-16.38-14.73-20.27l-7.89-4.83c-6.37-3.89-14.76-12.29-18.65-18.65L363,51.7c-3.89-6.37-13-13-20.27-14.73l-9-2.15c-7.26-1.74-17.83-7.13-23.5-12l-7-6c-5.67-4.85-16.4-8.34-23.83-7.74l-9.23.73c-7.43.59-19.16-1.26-26.05-4.13l-8.54-3.54c-6.89-2.87-18.17-2.87-25.06,0L202,5.69c-6.89,2.87-18.61,4.72-26.05,4.13l-9.22-.73c-7.44-.6-18.16,2.89-23.83,7.74l-7,6c-5.67,4.85-16.24,10.24-23.5,12l-9,2.15C96.09,38.7,87,45.33,83.07,51.7l-4.83,7.89C74.35,66,66,74.35,59.59,78.24L51.7,83.07c-6.37,3.89-13,13-14.73,20.27l-2.15,9c-1.74,7.25-7.13,17.83-12,23.5l-6,7C12,148.54,8.5,159.26,9.09,166.7l.73,9.22c.59,7.44-1.27,19.16-4.13,26.06l-3.55,8.54c-2.85,6.89-2.85,18.17,0,25l3.55,8.55c2.86,6.89,4.72,18.61,4.13,26.06l-.73,9.21c-.59,7.44,2.89,18.16,7.74,23.84l6,7c4.85,5.67,10.24,16.25,12,23.51l2.15,9C38.7,350,45.33,359.13,51.7,363l7.89,4.82c6.37,3.9,14.76,12.29,18.65,18.66l4.83,7.89c3.89,6.36,13,13,20.27,14.73l9,2.15c7.26,1.74,17.83,7.12,23.5,12l7,6c5.67,4.86,16.39,8.34,23.83,7.75l9.22-.73c7.44-.6,19.16,1.26,26.05,4.12l8.55,3.55c6.89,2.86,18.17,2.86,25.06,0l8.54-3.55c6.89-2.86,18.62-4.72,26.05-4.12l9.23.73c7.43.59,18.16-2.89,23.83-7.75l7-6c5.67-4.86,16.24-10.24,23.5-12l9-2.15c7.25-1.74,16.38-8.37,20.27-14.73l4.83-7.89c3.89-6.37,12.28-14.76,18.65-18.66L394.4,363c6.37-3.9,13-13,14.73-20.27l2.15-9c1.74-7.26,7.12-17.84,12-23.51l6-7c4.85-5.68,8.33-16.4,7.74-23.84l-.73-9.21c-.6-7.45,1.26-19.17,4.13-26.06l3.54-8.55C446.81,228.69,446.81,217.41,444,210.52ZM223.05,427.87c-113.12,0-204.82-91.7-204.82-204.82S109.93,18.23,223.05,18.23s204.82,91.7,204.82,204.82S336.17,427.87,223.05,427.87Z" transform="translate(0 0)"/><path class="cls-2" d="M260.44,196.14V193a44.21,44.21,0,0,0-3-17.7c-3.05-10-9.81-16.15-13.59-19.53s-5.25-8.58-5.54-11.19-.61-7.08-.65-10.3-.89-37.15-1.1-39.67.17-3.46.66-4a3.52,3.52,0,0,0,.53-2.28c0-.81-.17-2.68-.17-4A5.14,5.14,0,0,0,237,81.5c-.36-.53-.44-1.43-.48-3.87S235,75.1,233.83,75a64.25,64.25,0,0,0-20.59.33c-2.77.53-2.81,2.6-2.85,3.86a5.73,5.73,0,0,1-.73,2.81c-.29.32-.33.77-.33,1.67s-.12,2.4-.12,4.22a5.85,5.85,0,0,0,.61,3.18,5.56,5.56,0,0,1,.53,2.24c0,.53-.77,29.22-.85,35.08s-.2,14.44-.37,16.43c-.69,7.86-5.68,11.65-7.45,13.35a52.1,52.1,0,0,0-9.19,12.17c-4.81,8.34-5.17,18.59-5.21,20.14,0,0,0,2.09,0,5.71Z" transform="translate(0 0)"/><path class="cls-2" d="M260.69,259.4H187.8c.2,25.33.38,48.53.41,51.11.09,5.9.33,33.49.29,39.79a48.63,48.63,0,0,0,1.42,12.09c1,4.8,4.76,5.93,6.8,6.71,4.23,1.63,12.21,2.14,15.13,2.32,23.93,1.46,37.07-1.8,38.7-2.12,8.91-1.7,9.33-6.75,9.85-8.54,1-3.34.81-6.23.9-9.19s-.17-16.81-.25-19C261,331.43,260.84,294.84,260.69,259.4Z" transform="translate(0 0)"/><path class="cls-2" d="M168.6,196.14a38.21,38.21,0,0,0-2.6-14.41c-2.64-8.62-8.48-14-11.75-16.89a16.23,16.23,0,0,1-4.79-9.67c-.24-2.25-.53-6.12-.56-8.9s-.77-32.12-1-34.3.14-3,.56-3.45a3,3,0,0,0,.46-2c0-.7-.14-2.32-.14-3.44a4.45,4.45,0,0,0-.53-2.43c-.31-.46-.39-1.23-.42-3.34s-1.32-2.19-2.29-2.32a55.62,55.62,0,0,0-17.8.28c-2.39.46-2.42,2.25-2.46,3.34a4.89,4.89,0,0,1-.63,2.43c-.25.28-.28.66-.28,1.44s-.11,2.07-.11,3.65a5,5,0,0,0,.53,2.75,4.91,4.91,0,0,1,.46,1.94c0,.45-.67,25.25-.74,30.32s-.17,12.49-.32,14.21c-.6,6.79-4.91,10.07-6.44,11.54a45.38,45.38,0,0,0-8,10.52c-4.15,7.21-4.47,16.07-4.5,17.41,0,0,0,.46,0,1.29Z" transform="translate(0 0)"/><path class="cls-2" d="M168.83,259.4h-63c.15,19.9.29,37.2.32,39.26.07,5.1.28,28.95.25,34.4a41,41,0,0,0,1.23,10.44c.88,4.16,4.1,5.13,5.87,5.81,3.66,1.41,10.56,1.85,13.08,2,20.69,1.26,32-1.56,33.46-1.84,7.7-1.47,8.06-5.83,8.51-7.38a28.65,28.65,0,0,0,.78-8c.07-2.57-.14-14.53-.21-16.43C169.09,316.8,169,288.41,168.83,259.4Z" transform="translate(0 0)"/><path class="cls-2" d="M342.72,259.4h-63c.15,19.9.29,37.2.32,39.26.07,5.1.28,28.95.24,34.4a41.27,41.27,0,0,0,1.24,10.44c.88,4.16,4.1,5.13,5.87,5.81,3.66,1.41,10.56,1.85,13.08,2,20.69,1.26,32-1.56,33.46-1.84,7.7-1.47,8.06-5.83,8.51-7.38a28.65,28.65,0,0,0,.78-8c.07-2.57-.14-14.53-.22-16.43C343,316.8,342.85,288.41,342.72,259.4Z" transform="translate(0 0)"/><path class="cls-2" d="M342.49,196.14a37.89,37.89,0,0,0-2.61-14.41c-2.63-8.62-8.47-14-11.74-16.89a16.23,16.23,0,0,1-4.79-9.67c-.24-2.25-.53-6.12-.56-8.9s-.78-32.12-1-34.3.14-3,.56-3.45a3,3,0,0,0,.46-2c0-.7-.14-2.32-.14-3.44a4.45,4.45,0,0,0-.53-2.43c-.32-.46-.39-1.23-.42-3.34s-1.32-2.19-2.29-2.32a55.6,55.6,0,0,0-17.8.28c-2.39.46-2.43,2.25-2.46,3.34a5,5,0,0,1-.63,2.43c-.25.28-.28.66-.28,1.44s-.11,2.07-.11,3.65a5,5,0,0,0,.53,2.75,4.91,4.91,0,0,1,.46,1.94c0,.45-.67,25.25-.74,30.32s-.17,12.49-.32,14.21c-.6,6.79-4.91,10.07-6.44,11.54a45.38,45.38,0,0,0-7.95,10.52c-4.15,7.21-4.47,16.07-4.5,17.41,0,0,0,.46,0,1.29Z" transform="translate(0 0)"/><path class="cls-1" d="M223.63,417.69a2,2,0,0,1,2-2.05h0a2,2,0,0,1,2,2h0a2,2,0,0,1-2,2h0A2,2,0,0,1,223.63,417.69Zm-8.16,1.87h0a2,2,0,0,1-1.95-2.1h0a2,2,0,0,1,2.1-1.94h0a2,2,0,0,1,1.94,2.1h0a2,2,0,0,1-2,1.94h-.07Zm18.25-2.16a2,2,0,0,1,1.89-2.15h0a2,2,0,0,1,2.15,1.89h0a2,2,0,0,1-1.89,2.15h-.13A2,2,0,0,1,233.72,417.4Zm-28.44,1.51a2,2,0,0,1-1.83-2.19h0a2,2,0,0,1,2.19-1.83h0a2,2,0,0,1,1.83,2.19h0a2,2,0,0,1-2,1.84h-.18Zm38.51-2.31a2,2,0,0,1,1.78-2.25h0a2,2,0,0,1,2.24,1.78h0a2,2,0,0,1-1.78,2.24h-.23A2,2,0,0,1,243.79,416.6Zm-48.65,1.14h0a2,2,0,0,1-1.71-2.28h0a2,2,0,0,1,2.28-1.72h0a2,2,0,0,1,1.72,2.28h0a2,2,0,0,1-2,1.74h0Zm58.67-2.47a2,2,0,0,1,1.65-2.33h0a2,2,0,0,1,2.33,1.65h0a2,2,0,0,1-1.65,2.33h0l-.34,0h0A2,2,0,0,1,253.81,415.27Zm-68.73.77h0a2,2,0,0,1-1.6-2.37h0a2,2,0,0,1,2.37-1.59h0a2,2,0,0,1,1.6,2.37h0a2,2,0,0,1-2,1.63h0A1.72,1.72,0,0,1,185.08,416Zm78.66-2.62a2,2,0,0,1,1.53-2.41h0a2,2,0,0,1,2.41,1.53h0a2,2,0,0,1-1.53,2.41h0a1.61,1.61,0,0,1-.44.05h0A2,2,0,0,1,263.74,413.42Zm-88.63.4h0a2,2,0,0,1-1.47-2.45h0a2,2,0,0,1,2.46-1.47h0a2,2,0,0,1,1.47,2.45h0a2,2,0,0,1-2,1.53h0A2.12,2.12,0,0,1,175.11,413.82Zm98.45-2.76a2,2,0,0,1,1.41-2.49h0a2,2,0,0,1,2.48,1.41h0a2,2,0,0,1-1.4,2.48h0a1.68,1.68,0,0,1-.54.08h0A2,2,0,0,1,273.56,411.06Zm-108.28,0a2,2,0,0,1-1.34-2.53h0a2,2,0,0,1,2.52-1.34h0a2,2,0,0,1,1.34,2.53h0a2,2,0,0,1-1.93,1.43h0A2.06,2.06,0,0,1,165.28,411.09Zm118-2.9a2,2,0,0,1,1.27-2.56h0a2,2,0,0,1,2.56,1.27h0a2,2,0,0,1-1.27,2.56h0a2.05,2.05,0,0,1-.64.11h0A2,2,0,0,1,283.25,408.19Zm-127.67-.36a2,2,0,0,1-1.21-2.59h0A2,2,0,0,1,157,404h0a2,2,0,0,1,1.21,2.6h0a2,2,0,0,1-1.9,1.32h0A2.09,2.09,0,0,1,155.58,407.83Zm137.19-3a2,2,0,0,1,1.14-2.62h0a2,2,0,0,1,2.62,1.13h0a2,2,0,0,1-1.14,2.62h0a2,2,0,0,1-.75.14h0A2,2,0,0,1,292.77,404.82Zm-146.71-.75a2,2,0,0,1-1.06-2.65h0a2,2,0,0,1,2.65-1.06h0a2,2,0,0,1,1.06,2.65h0a2,2,0,0,1-1.86,1.22h0A2,2,0,0,1,146.06,404.07Zm156-3.11a2,2,0,0,1,1-2.68h0a2,2,0,0,1,2.68,1h0a2,2,0,0,1-1,2.67h0a2.12,2.12,0,0,1-.84.18h0A2,2,0,0,1,302.09,401Zm-165.33-1.14a2,2,0,0,1-.92-2.7h0a2,2,0,0,1,2.7-.93h0a2,2,0,0,1,.93,2.7h0a2,2,0,0,1-1.82,1.14h0A2,2,0,0,1,136.76,399.82Zm174.43-3.2a2,2,0,0,1,.86-2.73h0a2,2,0,0,1,2.72.86h0a2,2,0,0,1-.85,2.72h0a2,2,0,0,1-.93.23h0A2,2,0,0,1,311.19,396.62ZM127.7,395.1a2,2,0,0,1-.78-2.75h0a2,2,0,0,1,2.74-.79h0a2,2,0,0,1,.79,2.75h0a2,2,0,0,1-1.77,1h0A2,2,0,0,1,127.7,395.1Zm192.36-3.29a2,2,0,0,1,.72-2.77h0a2,2,0,0,1,2.76.72h0a2,2,0,0,1-.71,2.76h0a2,2,0,0,1-1,.28h0A2,2,0,0,1,320.06,391.81Zm-201.16-1.9h0a2,2,0,0,1-.64-2.79h0a2,2,0,0,1,2.78-.64h0a2,2,0,0,1,.64,2.78h0a2,2,0,0,1-1.71.95h0A2.06,2.06,0,0,1,118.9,389.91Zm209.77-3.37a2,2,0,0,1,.57-2.8h0a2,2,0,0,1,2.8.57h0a2,2,0,0,1-.57,2.8h0a2,2,0,0,1-1.11.34h0A2,2,0,0,1,328.67,386.54Zm-218.29-2.28a2,2,0,0,1-.5-2.81h0a2,2,0,0,1,2.82-.5h0a2,2,0,0,1,.49,2.82h0a2,2,0,0,1-1.65.86h0A2,2,0,0,1,110.38,384.26ZM337,380.84a2,2,0,0,1,.43-2.83h0a2,2,0,0,1,2.82.43h0a2,2,0,0,1-.42,2.82h0a2,2,0,0,1-1.2.4h0A2,2,0,0,1,337,380.84Zm-234.83-2.65a2,2,0,0,1-.35-2.83h0a2,2,0,0,1,2.83-.35h0a2,2,0,0,1,.35,2.83h0a2,2,0,0,1-1.59.78h0A2,2,0,0,1,102.17,378.19ZM345,374.71a2,2,0,0,1,.28-2.84h0a2,2,0,0,1,2.84.27h0a2,2,0,0,1-.28,2.85h0a2,2,0,0,1-1.28.46h0A2,2,0,0,1,345,374.71Zm-250.75-3a2,2,0,0,1-.2-2.85h0a2,2,0,0,1,2.85-.21h0a2,2,0,0,1,.2,2.85h0a2,2,0,0,1-1.53.7h0A2,2,0,0,1,94.28,371.71Zm258.45-3.54a2,2,0,0,1,.13-2.85h0a2,2,0,0,1,2.85.13h0a2,2,0,0,1-.13,2.85h0a2,2,0,0,1-1.36.53h0A2,2,0,0,1,352.73,368.17Zm-266-3.35a2,2,0,0,1-.06-2.85h0a2,2,0,0,1,2.86-.06h0a2,2,0,0,1,.06,2.86h0a2,2,0,0,1-1.46.62h0A2,2,0,0,1,86.74,364.82Zm273.34-3.58a2,2,0,0,1,0-2.85h0a2,2,0,0,1,2.86,0h0a2,2,0,0,1,0,2.86h0a2,2,0,0,1-1.44.6h0A2,2,0,0,1,360.08,361.24ZM79.57,357.56h0a2,2,0,0,1,.09-2.86h0a2,2,0,0,1,2.86.1h0a2,2,0,0,1-.1,2.85h0a2,2,0,0,1-1.38.55h0A2,2,0,0,1,79.57,357.56ZM367.07,354a2,2,0,0,1-.16-2.86h0a2,2,0,0,1,2.85-.16h0a2,2,0,0,1,.16,2.85h0a2,2,0,0,1-1.51.68h0A2,2,0,0,1,367.07,354Zm-294.29-4a2,2,0,0,1,.24-2.85h0a2,2,0,0,1,2.85.24h0a2,2,0,0,1-.24,2.85h0a2,2,0,0,1-1.3.48h0A2,2,0,0,1,72.78,349.94Zm300.89-3.65a2,2,0,0,1-.31-2.84h0a2,2,0,0,1,2.84-.31h0a2,2,0,0,1,.31,2.84h0a2,2,0,0,1-1.57.76h0A2,2,0,0,1,373.67,346.29ZM66.4,342h0a2,2,0,0,1,.38-2.83h0a2,2,0,0,1,2.83.39h0a2,2,0,0,1-.38,2.83h0a2.08,2.08,0,0,1-1.22.41h0A2,2,0,0,1,66.4,342Zm313.48-3.67a2,2,0,0,1-.46-2.82h0a2,2,0,0,1,2.82-.46h0a2,2,0,0,1,.46,2.82h0a2,2,0,0,1-1.64.84h0A2,2,0,0,1,379.88,338.31ZM60.43,333.7a2,2,0,0,1,.54-2.8h0a2,2,0,0,1,2.8.53h0a2,2,0,0,1-.53,2.81h0a2.06,2.06,0,0,1-1.13.35h0A2,2,0,0,1,60.43,333.7ZM385.66,330a2,2,0,0,1-.61-2.79h0a2,2,0,0,1,2.8-.6h0a2,2,0,0,1,.6,2.79h0a2,2,0,0,1-1.7.93h0A2,2,0,0,1,385.66,330ZM54.91,325.13a2,2,0,0,1,.68-2.77h0a2,2,0,0,1,2.77.67h0a2,2,0,0,1-.67,2.78h0a2,2,0,0,1-1,.29h0A2,2,0,0,1,54.91,325.13ZM391,321.43a2,2,0,0,1-.75-2.76h0a2,2,0,0,1,2.76-.75h0a2,2,0,0,1,.75,2.76h0a2,2,0,0,1-1.76,1h0A2,2,0,0,1,391,321.43ZM49.84,316.29h0a2,2,0,0,1,.82-2.74h0a2,2,0,0,1,2.73.82h0a2,2,0,0,1-.82,2.74h0a2,2,0,0,1-1,.24h0A2,2,0,0,1,49.84,316.29Zm346-3.72a2,2,0,0,1-.89-2.71h0a2,2,0,0,1,2.72-.89h0a2,2,0,0,1,.89,2.71h0a2,2,0,0,1-1.81,1.11h0A2,2,0,0,1,395.89,312.57ZM45.23,307.2a2,2,0,0,1,1-2.69h0a2,2,0,0,1,2.7,1h0a2,2,0,0,1-1,2.69h0a2,2,0,0,1-.86.19h0A2,2,0,0,1,45.23,307.2Zm355.09-3.73a2,2,0,0,1-1-2.66h0a2,2,0,0,1,2.66-1h0a2,2,0,0,1,1,2.66h0a2,2,0,0,1-1.85,1.2h0A1.93,1.93,0,0,1,400.32,303.47ZM41.11,297.88a2,2,0,0,1,1.1-2.64h0a2,2,0,0,1,2.64,1.1h0a2,2,0,0,1-1.1,2.64h0a2.11,2.11,0,0,1-.77.15h0A2,2,0,0,1,41.11,297.88Zm363.15-3.73a2,2,0,0,1-1.17-2.61h0a2,2,0,0,1,2.61-1.17h0a2,2,0,0,1,1.17,2.61h0a2,2,0,0,1-1.89,1.3h0A2,2,0,0,1,404.26,294.15ZM37.47,288.34a2,2,0,0,1,1.24-2.57h0A2,2,0,0,1,41.28,287h0a2,2,0,0,1-1.23,2.58h0a2,2,0,0,1-.67.11h0A2,2,0,0,1,37.47,288.34Zm370.24-3.71a2,2,0,0,1-1.3-2.54h0a2,2,0,0,1,2.54-1.31h0a2,2,0,0,1,1.3,2.55h0a2,2,0,0,1-1.92,1.4h0A2,2,0,0,1,407.71,284.63Zm-373.37-6h0a2,2,0,0,1,1.36-2.51h0a2,2,0,0,1,2.51,1.37h0A2,2,0,0,1,36.84,280h0a2.24,2.24,0,0,1-.57.08h0A2,2,0,0,1,34.34,278.63ZM410.66,275a2,2,0,0,1-1.44-2.47h0a2,2,0,0,1,2.47-1.43h0a2,2,0,0,1,1.43,2.47h0a2,2,0,0,1-2,1.5h0A1.79,1.79,0,0,1,410.66,275Zm-379-6.2a2,2,0,0,1,1.5-2.43h0a2,2,0,0,1,2.43,1.5h0a2,2,0,0,1-1.49,2.43h0a2,2,0,0,1-.47.06h0A2,2,0,0,1,31.71,268.76Zm381.38-3.6a2,2,0,0,1-1.56-2.39h0a2,2,0,0,1,2.39-1.57h0a2,2,0,0,1,1.56,2.4h0a2,2,0,0,1-2,1.6h0A2,2,0,0,1,413.09,265.16ZM29.61,258.78h0a2,2,0,0,1,1.62-2.35h0A2,2,0,0,1,33.58,258h0A2,2,0,0,1,32,260.4h0a2.19,2.19,0,0,1-.36,0h0A2,2,0,0,1,29.61,258.78ZM415,255.24a2,2,0,0,1-1.69-2.31h0a2,2,0,0,1,2.31-1.68h0a2,2,0,0,1,1.68,2.3h0a2,2,0,0,1-2,1.71h0A1.62,1.62,0,0,1,415,255.24ZM28,248.69a2,2,0,0,1,1.74-2.26h0A2,2,0,0,1,32,248.17h0a2,2,0,0,1-1.75,2.26h0l-.26,0h0A2,2,0,0,1,28,248.69Zm388.37-3.45a2,2,0,0,1-1.8-2.22h0a2,2,0,0,1,2.22-1.81h0a2,2,0,0,1,1.8,2.22h0a2,2,0,0,1-2,1.82h-.21ZM27,238.54a2,2,0,0,1,1.86-2.17h0A2,2,0,0,1,31,238.23h0a2,2,0,0,1-1.86,2.18H29A2,2,0,0,1,27,238.54Zm390.31-3.37a2,2,0,0,1-1.91-2.12h0a2,2,0,0,1,2.12-1.91h0a2,2,0,0,1,1.91,2.12h0a2,2,0,0,1-2,1.91h-.1ZM26.44,228.35a2,2,0,0,1,2-2.07h0a2,2,0,0,1,2.07,2h0a2,2,0,0,1-2,2.07h-.06A2,2,0,0,1,26.44,228.35Zm389.18-5.3h0c0-.06,0-.13,0-.19h0c0-.07,0-.15,0-.22h0a2,2,0,0,1,2-2h0a2,2,0,0,1,2,2h0a1.62,1.62,0,0,1,0,.22h0a1.27,1.27,0,0,1,0,.2h0a2,2,0,0,1-2,2h0A2,2,0,0,1,415.62,223.05ZM28.4,220.21a2,2,0,0,1-2-2.07h0a2,2,0,0,1,2.07-2h0a2,2,0,0,1,2,2.07h0a2,2,0,0,1-2,2H28.4Zm387-7.57h0a2,2,0,0,1,1.91-2.12h0a2,2,0,0,1,2.12,1.91h0a2,2,0,0,1-1.91,2.12h-.11A2,2,0,0,1,415.35,212.64ZM28.81,210.12A2,2,0,0,1,26.94,208h0a2,2,0,0,1,2.17-1.86h0A2,2,0,0,1,31,208.25h0a2,2,0,0,1-2,1.87h-.15Zm385.75-7.44a2,2,0,0,1,1.8-2.22h0a2,2,0,0,1,2.22,1.8h0a2,2,0,0,1-1.8,2.22h-.21A2,2,0,0,1,414.56,202.68ZM29.73,200.06A2,2,0,0,1,28,197.79h0a2,2,0,0,1,2.26-1.74h0A2,2,0,0,1,32,198.31h0a2,2,0,0,1-2,1.76h-.25Zm383.53-7.29a2,2,0,0,1,1.68-2.31h0a2,2,0,0,1,2.31,1.68h0a2,2,0,0,1-1.68,2.31h0a1.77,1.77,0,0,1-.32,0h0A2,2,0,0,1,413.26,192.77ZM31.17,190.06a2,2,0,0,1-1.63-2.35h0a2,2,0,0,1,2.35-1.63h0a2,2,0,0,1,1.63,2.35h0a2,2,0,0,1-2,1.66h0A2.19,2.19,0,0,1,31.17,190.06Zm380.27-7.12a2,2,0,0,1,1.56-2.4h0a2,2,0,0,1,2.39,1.56h0a2,2,0,0,1-1.55,2.4h0a2,2,0,0,1-.42,0h0A2,2,0,0,1,411.44,182.94Zm-378.31-2.8a2,2,0,0,1-1.5-2.43h0a2,2,0,0,1,2.43-1.5h0a2,2,0,0,1,1.5,2.43h0a2,2,0,0,1-2,1.56h0A1.82,1.82,0,0,1,33.13,180.14Zm376-6.92a2,2,0,0,1,1.43-2.48h0a2,2,0,0,1,2.48,1.43h0a2,2,0,0,1-1.43,2.48h0a2.37,2.37,0,0,1-.52.06h0A2,2,0,0,1,409.11,173.22ZM35.6,170.35a2,2,0,0,1-1.37-2.51h0a2,2,0,0,1,2.51-1.37h0A2,2,0,0,1,38.11,169h0a2,2,0,0,1-1.94,1.45h0A2.24,2.24,0,0,1,35.6,170.35Zm370.68-6.72h0a2,2,0,0,1,1.3-2.55h0a2,2,0,0,1,2.55,1.3h0a2,2,0,0,1-1.3,2.55h0a2.3,2.3,0,0,1-.63.1h0A2,2,0,0,1,406.28,163.63ZM38.59,160.7a2,2,0,0,1-1.24-2.58h0a2,2,0,0,1,2.57-1.24h0a2,2,0,0,1,1.24,2.58h0a2,2,0,0,1-1.91,1.35h0A2.17,2.17,0,0,1,38.59,160.7ZM403,154.2a2,2,0,0,1,1.17-2.61h0a2,2,0,0,1,2.61,1.17h0a2,2,0,0,1-1.16,2.61h0a2,2,0,0,1-.72.13h0A2,2,0,0,1,403,154.2Zm-360.87-3a2,2,0,0,1-1.1-2.63h0a2,2,0,0,1,2.63-1.11h0a2,2,0,0,1,1.1,2.64h0a2,2,0,0,1-1.87,1.26h0A1.89,1.89,0,0,1,42.08,151.19ZM399.14,145a2,2,0,0,1,1-2.66h0a2,2,0,0,1,2.67,1h0a2,2,0,0,1-1,2.67h0a2,2,0,0,1-.82.17h0A2,2,0,0,1,399.14,145ZM46.06,141.89a2,2,0,0,1-1-2.69h0a2,2,0,0,1,2.69-1h0a2,2,0,0,1,1,2.69h0a2,2,0,0,1-1.83,1.15h0A2,2,0,0,1,46.06,141.89ZM394.86,136h0a2,2,0,0,1,.88-2.72h0a2,2,0,0,1,2.72.89h0a2,2,0,0,1-.89,2.72h0a2.09,2.09,0,0,1-.91.21h0A2,2,0,0,1,394.86,136ZM50.52,132.81a2,2,0,0,1-.82-2.74h0a2,2,0,0,1,2.74-.82h0a2,2,0,0,1,.82,2.74h0a2,2,0,0,1-1.78,1.06h0A2.1,2.1,0,0,1,50.52,132.81Zm339.59-5.62a2,2,0,0,1,.74-2.76h0a2,2,0,0,1,2.76.74h0a2,2,0,0,1-.74,2.76h0a2,2,0,0,1-1,.27h0A2,2,0,0,1,390.11,127.19ZM55.45,124a2,2,0,0,1-.68-2.78h0a2,2,0,0,1,2.78-.68h0a2,2,0,0,1,.68,2.78h0a2,2,0,0,1-1.73,1h0A2.1,2.1,0,0,1,55.45,124Zm329.46-5.32a2,2,0,0,1,.6-2.79h0a2,2,0,0,1,2.79.6h0a2,2,0,0,1-.6,2.79h0a2,2,0,0,1-1.09.33h0A2,2,0,0,1,384.91,118.66ZM60.83,115.41a2,2,0,0,1-.53-2.8h0a2,2,0,0,1,2.8-.54h0a2,2,0,0,1,.54,2.81h0a2,2,0,0,1-1.67.88h0A2,2,0,0,1,60.83,115.41Zm318.44-5h0a2,2,0,0,1,.45-2.83h0a2,2,0,0,1,2.82.46h0a2,2,0,0,1-.45,2.82h0a2,2,0,0,1-1.18.38h0A2,2,0,0,1,379.27,110.41ZM66.65,107.14a2,2,0,0,1-.39-2.83h0a2,2,0,0,1,2.83-.39h0a2,2,0,0,1,.39,2.83h0a2,2,0,0,1-1.61.8h0A2,2,0,0,1,66.65,107.14Zm306.56-4.67h0a2,2,0,0,1,.31-2.84h0a2,2,0,0,1,2.84.31h0a2,2,0,0,1-.31,2.84h0a2,2,0,0,1-1.26.44h0A2,2,0,0,1,373.21,102.47ZM72.88,99.18a2,2,0,0,1-.24-2.84h0a2,2,0,0,1,2.85-.24h0a2,2,0,0,1,.24,2.84h0a2,2,0,0,1-1.55.72h0A2,2,0,0,1,72.88,99.18Zm293.87-4.34a2,2,0,0,1,.16-2.85h0a2,2,0,0,1,2.85.16h0A2,2,0,0,1,369.6,95h0a2,2,0,0,1-1.34.52h0A2,2,0,0,1,366.75,94.84ZM79.52,91.56a2,2,0,0,1-.1-2.85h0a2,2,0,0,1,2.86-.09h0a2,2,0,0,1,.09,2.86h0a2,2,0,0,1-1.47.64h0A2,2,0,0,1,79.52,91.56Zm280.38-4a2,2,0,0,1,0-2.86h0a2,2,0,0,1,2.85,0h0a2,2,0,0,1,0,2.86h0a2,2,0,0,1-1.42.59h0A2,2,0,0,1,359.9,87.56ZM86.54,84.29a2,2,0,0,1,0-2.85h0a2,2,0,0,1,2.85,0h0a2,2,0,0,1,0,2.86h0a2,2,0,0,1-1.4.56h0A2,2,0,0,1,86.54,84.29Zm266.14-3.66a2,2,0,0,1-.13-2.85h0a2,2,0,0,1,2.86-.13h0a2,2,0,0,1,.13,2.85h0a2,2,0,0,1-1.49.66h0A2,2,0,0,1,352.68,80.63ZM93.92,77.4a2,2,0,0,1,.2-2.85h0a2,2,0,0,1,2.85.2h0a2,2,0,0,1-.2,2.85h0a2,2,0,0,1-1.33.49h0A2,2,0,0,1,93.92,77.4Zm251.2-3.31a2,2,0,0,1-.28-2.84h0a2,2,0,0,1,2.84-.28h0a2,2,0,0,1,.28,2.84h0a2,2,0,0,1-1.56.74h0A2,2,0,0,1,345.12,74.09Zm-243.48-3.2a2,2,0,0,1,.35-2.83h0a2,2,0,0,1,2.83.34h0a2,2,0,0,1-.34,2.84h0a2,2,0,0,1-1.25.43h0A2,2,0,0,1,101.64,70.89ZM337.23,68a2,2,0,0,1-.43-2.83h0a2,2,0,0,1,2.82-.42h0a2,2,0,0,1,.43,2.82h0a2,2,0,0,1-1.63.82h0A2,2,0,0,1,337.23,68ZM109.69,64.8a2,2,0,0,1,.49-2.82h0a2,2,0,0,1,2.82.5h0a2,2,0,0,1-.49,2.81h0a2,2,0,0,1-1.16.37h0A2,2,0,0,1,109.69,64.8ZM329,62.22h0a2,2,0,0,1-.57-2.8h0a2,2,0,0,1,2.8-.57h0a2,2,0,0,1,.57,2.8h0a2,2,0,0,1-1.69.9h0A2,2,0,0,1,329,62.22ZM118,59.13a2,2,0,0,1,.64-2.79h0a2,2,0,0,1,2.79.64h0a2,2,0,0,1-.64,2.79h0a2.09,2.09,0,0,1-1.07.3h0A2,2,0,0,1,118,59.13Zm202.49-2.21a2,2,0,0,1-.72-2.76h0a2,2,0,0,1,2.77-.72h0a2,2,0,0,1,.72,2.76h0a2,2,0,0,1-1.75,1h0A2,2,0,0,1,320.53,56.92Zm-193.85-3a2,2,0,0,1,.78-2.75h0a2,2,0,0,1,2.75.78h0a2,2,0,0,1-.79,2.75h0a2.05,2.05,0,0,1-1,.26h0A2,2,0,0,1,126.68,53.9Zm185.09-1.83a2,2,0,0,1-.86-2.72h0a2,2,0,0,1,2.73-.86h0a2,2,0,0,1,.86,2.72h0a2,2,0,0,1-1.8,1.09h0A2,2,0,0,1,311.77,52.07ZM135.56,49.13a2,2,0,0,1,.93-2.71h0a2,2,0,0,1,2.7.93h0a2,2,0,0,1-.92,2.7h0a2,2,0,0,1-.89.21h0A2,2,0,0,1,135.56,49.13Zm167.21-1.44h0a2,2,0,0,1-1-2.68h0a2,2,0,0,1,2.68-1h0a2,2,0,0,1,1,2.67h0a2,2,0,0,1-1.84,1.19h0A2.08,2.08,0,0,1,302.77,47.69ZM144.68,44.82a2,2,0,0,1,1.07-2.65h0a2,2,0,0,1,2.65,1.07h0a2,2,0,0,1-1.06,2.65h0a2,2,0,0,1-.8.16h0A2,2,0,0,1,144.68,44.82Zm148.87-1a2,2,0,0,1-1.14-2.63h0A2,2,0,0,1,295,40h0a2,2,0,0,1,1.14,2.63h0a2,2,0,0,1-1.88,1.28h0A2.2,2.2,0,0,1,293.55,43.78ZM154,41a2,2,0,0,1,1.2-2.6h0a2,2,0,0,1,2.6,1.2h0a2,2,0,0,1-1.2,2.6h0a2.15,2.15,0,0,1-.7.12h0A2,2,0,0,1,154,41Zm130.13-.66a2,2,0,0,1-1.28-2.56h0a2,2,0,0,1,2.56-1.27h0a2,2,0,0,1,1.27,2.56h0a2,2,0,0,1-1.91,1.37h0A2,2,0,0,1,284.14,40.35ZM163.55,37.67a2,2,0,0,1,1.33-2.53h0a2,2,0,0,1,2.53,1.34h0A2,2,0,0,1,166.08,39h0a2.08,2.08,0,0,1-.6.09h0A2,2,0,0,1,163.55,37.67Zm111-.24a2,2,0,0,1-1.41-2.49h0a2,2,0,0,1,2.49-1.41h0a2,2,0,0,1,1.4,2.49h0a2,2,0,0,1-1.94,1.48h0A2,2,0,0,1,274.58,37.43ZM173.25,34.84a2,2,0,0,1,1.46-2.45h0a2,2,0,0,1,2.46,1.46h0a2,2,0,0,1-1.47,2.46h0a1.66,1.66,0,0,1-.49.07h0A2,2,0,0,1,173.25,34.84Zm91.63.17a2,2,0,0,1-1.54-2.41h0a2,2,0,0,1,2.41-1.53h0a2,2,0,0,1,1.54,2.41h0a2,2,0,0,1-2,1.58h0A2.1,2.1,0,0,1,264.88,35Zm-81.8-2.49a2,2,0,0,1,1.59-2.37h0a2,2,0,0,1,2.38,1.59h0a2,2,0,0,1-1.6,2.37h0a1.72,1.72,0,0,1-.39,0h0A2,2,0,0,1,183.08,32.52Zm72,.58a2,2,0,0,1-1.65-2.32h0a2,2,0,0,1,2.32-1.66h0a2,2,0,0,1,1.66,2.32h0a2,2,0,0,1-2,1.69h0Zm-62-2.38a2,2,0,0,1,1.71-2.29h0A2,2,0,0,1,197,30.14h0a2,2,0,0,1-1.71,2.29h0l-.29,0h0A2,2,0,0,1,193,30.72Zm52.14,1h0a2,2,0,0,1-1.78-2.24h0a2,2,0,0,1,2.23-1.78h0a2,2,0,0,1,1.78,2.24h0a2,2,0,0,1-2,1.79h-.24ZM203,29.43a2,2,0,0,1,1.83-2.19h0a2,2,0,0,1,2.19,1.82h0a2,2,0,0,1-1.82,2.2h-.19A2,2,0,0,1,203,29.43Zm32.17,1.4a2,2,0,0,1-1.89-2.14h0a2,2,0,0,1,2.14-1.89h0a2,2,0,0,1,1.89,2.14h0a2,2,0,0,1-2,1.89h-.12Zm-22.1-2.16a2,2,0,0,1,1.94-2.1h0a2,2,0,0,1,2.1,1.94h0a2,2,0,0,1-1.94,2.1h-.08A2,2,0,0,1,213.11,28.67Zm12.1,1.79a2,2,0,0,1-2-2h0a2,2,0,0,1,2-2h0a2,2,0,0,1,2,2h0a2,2,0,0,1-2,2h0Z" transform="translate(0 0)"/><path class="cls-1" d="M100.29,211.66c-4,.52-4.62,1.21-6.16,5.77-1.58,4.72-5.84,18.22-9.18,29.06H82.26c-2.85-8.23-6.21-17.33-9.28-25.62-3,8.8-6,17.39-8.66,25.62H61.58c-2.41-8.43-5.83-19.54-8.9-29.33-1.41-4.32-2.17-5.15-5.63-5.5v-1.88h15.7v1.88c-4.14.41-4.25,1.16-3.48,4,1.95,6.78,4,13.59,6,20.26,2.91-8.18,5.81-17,8.46-25.8h2.54c3.07,8.83,6.22,17.28,9.33,25.86,2.16-6.49,5-16,5.93-19.73.8-3.25.28-4.16-4.48-4.6v-1.88h13.26Z" transform="translate(0 0)"/><path class="cls-1" d="M102.13,245.88V244c4.34-.43,4.82-.72,4.82-5.41V217.12c0-4.7-.51-5.07-4.82-5.46v-1.88H118.5v1.88c-4.32.42-4.84.76-4.84,5.46v21.47c0,4.67.48,4.95,4.84,5.41v1.88Z" transform="translate(0 0)"/><path class="cls-1" d="M162.12,211.66c-3.45.42-4.55,1.09-4.71,3.6-.13,2-.28,4.08-.28,9v22.16h-2.76L131,218.23v13c0,4.89.13,7.18.28,8.79.18,2.58,1.42,3.7,5.49,4v1.88H123.1V244c3.26-.28,4.63-1.11,4.92-3.76a80.54,80.54,0,0,0,.32-9V217.72a6,6,0,0,0-1.15-4.21c-1-1.39-2.29-1.61-4.76-1.85v-1.88h9.95l22,25.77V224.29c0-4.95-.07-7-.24-8.9-.17-2.42-1.19-3.46-5.74-3.73v-1.88h13.72Z" transform="translate(0 0)"/><path class="cls-1" d="M195.81,236.65c-.3,1.48-1.83,7.63-2.35,9.23H165.27V244c5.1-.46,5.45-.81,5.45-5.44V217.12c0-4.8-.65-5.11-4.56-5.46v-1.88h17.68c5.62,0,7.64-.06,8.38-.11.06,1.13.31,5.55.54,8.82l-2,.28a14.45,14.45,0,0,0-2.13-4.84c-1-1.36-1.88-1.71-4.89-1.71h-4.19c-2,0-2.16.13-2.16,1.92V226h5.7c3.48,0,3.94-.83,4.71-4.72h2v12.06h-2c-.83-4.08-1.27-4.7-4.77-4.7h-5.64v10.07c0,3.86.5,4.73,3.71,4.79h4.37c3.21,0,3.95-.43,5.17-1.91a24.6,24.6,0,0,0,3.25-5.4Z" transform="translate(0 0)"/><path class="cls-1" d="M251.23,211.66c-4.43.44-4.83.76-4.83,5.38v21.63c0,4.63.46,4.9,4.83,5.33v1.88H234.87V244c4.47-.56,4.84-.7,4.84-5.33V228h-16.4v10.68c0,4.61.48,4.85,4.78,5.33v1.88H211.78V244c4.25-.46,4.82-.7,4.82-5.33V217c0-4.62-.5-5-4.82-5.38v-1.88h16.31v1.88c-4.3.39-4.78.77-4.78,5.38v8.26h16.4V217c0-4.61-.58-5-4.84-5.38v-1.88h16.36Z" transform="translate(0 0)"/><path class="cls-1" d="M275.41,209c10,0,18.43,7.42,18.43,18.4,0,11.87-8.33,19.31-18.73,19.31-10.95,0-18.91-8.11-18.91-18.73C256.2,218.33,263.07,209,275.41,209Zm-.93,2.31c-5.86,0-10.55,5.43-10.55,15.46,0,9.72,4.4,17.62,12,17.62,5.78,0,10.23-5.08,10.23-15.43C286.19,217.72,281.21,211.31,274.48,211.31Z" transform="translate(0 0)"/><path class="cls-1" d="M337,211.66c-3.54.29-4.6,1.29-4.79,3.48-.12,1.53-.23,3.58-.23,7.89v6.83c0,5.09-.74,9.75-3.93,13.1-2.57,2.68-6.46,3.73-10.36,3.73-3.51,0-7.1-.74-9.65-2.77-3.26-2.48-4.84-6-4.84-12.34V217.49c0-5.07-.48-5.44-4.78-5.83v-1.88H314.7v1.88c-4.26.35-4.74.76-4.74,5.83V232c0,6.88,3.33,11.11,9.52,11.11,7.06,0,9.81-4.89,9.81-13.53V223c0-4.28-.17-6.32-.28-7.92-.2-2.54-1.66-3.23-5.62-3.45v-1.88H337Z" transform="translate(0 0)"/><path class="cls-1" d="M360.07,218.69c-1.06-3.6-2.61-7.49-7.76-7.49a5.27,5.27,0,0,0-5.51,5.62c0,3.32,2.19,5.2,7,7.62,6.19,3.12,9.66,5.89,9.66,11.31,0,6.3-5.31,11-13,11a28.5,28.5,0,0,1-9-1.76c-.37-1.37-1.22-6.45-1.61-9.2l2-.48c1.11,3.58,4,9.21,9.55,9.21,3.6,0,5.79-2.35,5.79-5.92s-2.09-5.42-6.84-8c-5.79-3.13-9.4-5.87-9.4-11.43S345.33,209,353.31,209a38.61,38.61,0,0,1,7.73,1c.23,2,.56,4.69,1,8.23Z" transform="translate(0 0)"/><path class="cls-1" d="M397.89,236.65c-.3,1.48-1.83,7.63-2.35,9.23H367.35V244c5.1-.46,5.45-.81,5.45-5.44V217.12c0-4.8-.65-5.11-4.56-5.46v-1.88h17.68c5.62,0,7.64-.06,8.38-.11.06,1.13.31,5.55.54,8.82l-2,.28a14.45,14.45,0,0,0-2.13-4.84c-1-1.36-1.88-1.71-4.89-1.71h-4.19c-2,0-2.16.13-2.16,1.92V226h5.7c3.48,0,3.94-.83,4.71-4.72h2v12.06h-2c-.83-4.08-1.27-4.7-4.77-4.7h-5.64v10.07c0,3.86.5,4.73,3.71,4.79h4.37c3.21,0,3.95-.43,5.17-1.91a24.6,24.6,0,0,0,3.25-5.4Z" transform="translate(0 0)"/></svg>