<?xml version="1.0" encoding="utf-8"?>
<!-- Generator: Adobe Illustrator 23.0.6, SVG Export Plug-In . SVG Version: 6.00 Build 0)  -->
<svg version="1.1" id="Layer_1" xmlns="http://www.w3.org/2000/svg" xmlns:xlink="http://www.w3.org/1999/xlink" x="0px" y="0px"
	 viewBox="0 0 446.1 446.1" style="enable-background:new 0 0 446.1 446.1;" xml:space="preserve">
<style type="text/css">
	.st0{fill:#FFFFFF;}
	.st1{fill-rule:evenodd;clip-rule:evenodd;fill:#FFFFFF;}
</style>
<path class="st0" d="M443.9,210.5l-3.5-8.5c-2.9-6.9-4.7-18.6-4.1-26.1l0.7-9.2c0.6-7.4-2.9-18.2-7.7-23.8l-6-7
	c-4.9-5.7-10.2-16.2-12-23.5l-2.2-9c-1.7-7.3-8.4-16.4-14.7-20.3l-7.9-4.8c-6.4-3.9-14.8-12.3-18.7-18.7l-4.8-7.9
	c-3.9-6.4-13-13-20.3-14.7l-9-2.2c-7.3-1.7-17.8-7.1-23.5-12l-7-6c-5.7-4.9-16.4-8.3-23.8-7.7l-9.2,0.7c-7.4,0.6-19.2-1.3-26.1-4.1
	l-8.5-3.5c-6.9-2.9-18.2-2.9-25.1,0L202,5.7c-6.9,2.9-18.6,4.7-26.1,4.1l-9.2-0.7c-7.4-0.6-18.2,2.9-23.8,7.7l-7,6
	c-5.7,4.9-16.2,10.2-23.5,12l-9,2.2c-7.3,1.7-16.4,8.4-20.3,14.7l-4.8,7.9C74.3,66,66,74.4,59.6,78.2l-7.9,4.8
	c-6.4,3.9-13,13-14.7,20.3l-2.2,9c-1.7,7.3-7.1,17.8-12,23.5l-6,7c-4.9,5.7-8.3,16.4-7.7,23.8l0.7,9.2c0.6,7.4-1.3,19.2-4.1,26.1
	l-3.6,8.5c-2.9,6.9-2.9,18.2,0,25.1l3.6,8.5c2.9,6.9,4.7,18.6,4.1,26.1l-0.7,9.2c-0.6,7.4,2.9,18.2,7.7,23.8l6,7
	c4.9,5.7,10.2,16.2,12,23.5l2.2,9c1.7,7.3,8.4,16.4,14.7,20.3l7.9,4.8c6.4,3.9,14.8,12.3,18.7,18.7l4.8,7.9c3.9,6.4,13,13,20.3,14.7
	l9,2.2c7.3,1.7,17.8,7.1,23.5,12l7,6c5.7,4.9,16.4,8.3,23.8,7.7l9.2-0.7c7.4-0.6,19.2,1.3,26.1,4.1l8.5,3.5c6.9,2.9,18.2,2.9,25.1,0
	l8.5-3.5c6.9-2.9,18.6-4.7,26.1-4.1l9.2,0.7c7.4,0.6,18.2-2.9,23.8-7.7l7-6c5.7-4.9,16.2-10.2,23.5-12l9-2.2
	c7.3-1.7,16.4-8.4,20.3-14.7l4.8-7.9c3.9-6.4,12.3-14.8,18.7-18.7l7.9-4.8c6.4-3.9,13-13,14.7-20.3l2.2-9c1.7-7.3,7.1-17.8,12-23.5
	l6-7c4.9-5.7,8.3-16.4,7.7-23.8l-0.7-9.2c-0.6-7.4,1.3-19.2,4.1-26.1l3.5-8.5C446.8,228.7,446.8,217.4,443.9,210.5z M223.1,427.9
	c-113.1,0-204.8-91.7-204.8-204.8c0-113.1,91.7-204.8,204.8-204.8c113.1,0,204.8,91.7,204.8,204.8
	C427.9,336.2,336.2,427.9,223.1,427.9z"/>
<g>
	<g>
		<path class="st1" d="M260.4,196.1c0-1.9,0-3,0-3.2c0.2-10.6-2.6-16.4-3-17.7c-3.1-10-9.8-16.2-13.6-19.5
			c-3.8-3.4-5.3-8.6-5.5-11.2c-0.3-2.6-0.6-7.1-0.7-10.3c0-3.2-0.9-37.2-1.1-39.7c-0.2-2.5,0.2-3.5,0.7-4c0.5-0.5,0.5-1.5,0.5-2.3
			c0-0.8-0.2-2.7-0.2-4c0-1.3-0.2-2.3-0.6-2.8c-0.4-0.5-0.4-1.4-0.5-3.9c0-2.4-1.5-2.5-2.6-2.7c-10.5-1.4-17.8-0.2-20.6,0.3
			c-2.8,0.5-2.8,2.6-2.8,3.9c0,1.3-0.4,2.5-0.7,2.8c-0.3,0.3-0.3,0.8-0.3,1.7c0,0.9-0.1,2.4-0.1,4.2c0,1.8,0.3,2.6,0.6,3.2
			c0.3,0.5,0.5,1.7,0.5,2.2c0,0.5-0.8,29.2-0.9,35.1c-0.1,5.9-0.2,14.4-0.4,16.4c-0.7,7.9-5.7,11.6-7.4,13.3
			c-5.4,5.2-8.4,10.7-9.2,12.2c-4.8,8.3-5.2,18.6-5.2,20.1c0,0,0,2.1,0,5.7H260.4z"/>
		<path class="st1" d="M260.7,259.4h-72.9c0.2,25.3,0.4,48.5,0.4,51.1c0.1,5.9,0.3,33.5,0.3,39.8c0,6.3,1,10.2,1.4,12.1
			c1,4.8,4.8,5.9,6.8,6.7c4.2,1.6,12.2,2.1,15.1,2.3c23.9,1.5,37.1-1.8,38.7-2.1c8.9-1.7,9.3-6.7,9.8-8.5c1-3.3,0.8-6.2,0.9-9.2
			c0.1-3-0.2-16.8-0.2-19C261,331.4,260.8,294.8,260.7,259.4z"/>
	</g>
	<g>
		<path class="st1" d="M168.6,196.1c0-8.6-2.3-13.3-2.6-14.4c-2.6-8.6-8.5-14-11.7-16.9c-3.3-2.9-4.5-7.4-4.8-9.7
			c-0.2-2.3-0.5-6.1-0.6-8.9c0-2.8-0.8-32.1-0.9-34.3c-0.2-2.2,0.1-3,0.6-3.4c0.4-0.5,0.5-1.3,0.5-2c0-0.7-0.1-2.3-0.1-3.4
			c0-1.1-0.2-2-0.5-2.4c-0.3-0.5-0.4-1.2-0.4-3.3c0-2.1-1.3-2.2-2.3-2.3c-9-1.2-15.4-0.2-17.8,0.3c-2.4,0.5-2.4,2.2-2.5,3.3
			c0,1.1-0.4,2.1-0.6,2.4c-0.2,0.3-0.3,0.7-0.3,1.4c0,0.8-0.1,2.1-0.1,3.7c0,1.6,0.2,2.3,0.5,2.7c0.3,0.5,0.5,1.5,0.5,1.9
			c0,0.5-0.7,25.3-0.7,30.3c-0.1,5.1-0.2,12.5-0.3,14.2c-0.6,6.8-4.9,10.1-6.4,11.5c-4.6,4.5-7.2,9.3-7.9,10.5
			c-4.2,7.2-4.5,16.1-4.5,17.4c0,0,0,0.5,0,1.3H168.6z"/>
		<path class="st1" d="M168.8,259.4h-63c0.2,19.9,0.3,37.2,0.3,39.3c0.1,5.1,0.3,28.9,0.2,34.4c0,5.5,0.9,8.8,1.2,10.4
			c0.9,4.2,4.1,5.1,5.9,5.8c3.7,1.4,10.6,1.8,13.1,2c20.7,1.3,32-1.6,33.5-1.8c7.7-1.5,8.1-5.8,8.5-7.4c0.8-2.9,0.7-5.4,0.8-7.9
			c0.1-2.6-0.1-14.5-0.2-16.4C169.1,316.8,169,288.4,168.8,259.4z"/>
	</g>
	<g>
		<path class="st1" d="M342.7,259.4h-63c0.2,19.9,0.3,37.2,0.3,39.3c0.1,5.1,0.3,28.9,0.2,34.4c0,5.5,0.9,8.8,1.2,10.4
			c0.9,4.2,4.1,5.1,5.9,5.8c3.7,1.4,10.6,1.8,13.1,2c20.7,1.3,32-1.6,33.5-1.8c7.7-1.5,8.1-5.8,8.5-7.4c0.8-2.9,0.7-5.4,0.8-7.9
			c0.1-2.6-0.1-14.5-0.2-16.4C343,316.8,342.8,288.4,342.7,259.4z"/>
		<path class="st1" d="M342.5,196.1c0-8.6-2.3-13.3-2.6-14.4c-2.6-8.6-8.5-14-11.7-16.9c-3.3-2.9-4.5-7.4-4.8-9.7
			c-0.2-2.3-0.5-6.1-0.6-8.9c0-2.8-0.8-32.1-0.9-34.3c-0.2-2.2,0.1-3,0.6-3.4c0.4-0.5,0.5-1.3,0.5-2c0-0.7-0.1-2.3-0.1-3.4
			c0-1.1-0.2-2-0.5-2.4c-0.3-0.5-0.4-1.2-0.4-3.3c0-2.1-1.3-2.2-2.3-2.3c-9-1.2-15.4-0.2-17.8,0.3c-2.4,0.5-2.4,2.2-2.5,3.3
			c0,1.1-0.4,2.1-0.6,2.4c-0.2,0.3-0.3,0.7-0.3,1.4c0,0.8-0.1,2.1-0.1,3.7c0,1.6,0.2,2.3,0.5,2.7c0.3,0.5,0.5,1.5,0.5,1.9
			c0,0.5-0.7,25.3-0.7,30.3c-0.1,5.1-0.2,12.5-0.3,14.2c-0.6,6.8-4.9,10.1-6.4,11.5c-4.6,4.5-7.2,9.3-7.9,10.5
			c-4.2,7.2-4.5,16.1-4.5,17.4c0,0,0,0.5,0,1.3H342.5z"/>
	</g>
</g>
<path class="st0" d="M223.6,417.7c0-1.1,0.9-2,2-2l0,0c1.1,0,2,0.9,2,2l0,0c0,1.1-0.9,2-2,2l0,0c0,0,0,0,0,0l0,0
	C224.5,419.7,223.6,418.8,223.6,417.7z M215.5,419.6L215.5,419.6L215.5,419.6c-1.1-0.1-2-1-1.9-2.1l0,0c0-1.1,1-2,2.1-1.9l0,0
	c1.1,0,2,1,1.9,2.1l0,0C217.5,418.7,216.6,419.6,215.5,419.6L215.5,419.6C215.5,419.6,215.5,419.6,215.5,419.6z M233.7,417.4
	c-0.1-1.1,0.8-2.1,1.9-2.1l0,0c1.1-0.1,2.1,0.8,2.1,1.9l0,0c0.1,1.1-0.8,2.1-1.9,2.1l0,0c0,0-0.1,0-0.1,0l0,0
	C234.7,419.3,233.8,418.5,233.7,417.4z M205.3,418.9c-1.1-0.1-1.9-1.1-1.8-2.2l0,0c0.1-1.1,1.1-1.9,2.2-1.8l0,0
	c1.1,0.1,1.9,1.1,1.8,2.2l0,0c-0.1,1-1,1.8-2,1.8l0,0C205.4,418.9,205.3,418.9,205.3,418.9z M243.8,416.6c-0.1-1.1,0.7-2.1,1.8-2.2
	l0,0c1.1-0.1,2.1,0.7,2.2,1.8l0,0c0.1,1.1-0.7,2.1-1.8,2.2l0,0c-0.1,0-0.1,0-0.2,0l0,0C244.8,418.4,243.9,417.6,243.8,416.6z
	 M195.1,417.7L195.1,417.7L195.1,417.7c-1.1-0.2-1.9-1.2-1.7-2.3l0,0c0.2-1.1,1.2-1.9,2.3-1.7l0,0c1.1,0.1,1.9,1.2,1.7,2.3l0,0
	c-0.1,1-1,1.7-2,1.7l0,0C195.3,417.8,195.2,417.7,195.1,417.7z M253.8,415.3c-0.2-1.1,0.5-2.1,1.6-2.3l0,0c1.1-0.2,2.1,0.6,2.3,1.6
	l0,0c0.2,1.1-0.6,2.2-1.6,2.3l0,0c-0.1,0-0.2,0-0.3,0l0,0C254.8,416.9,254,416.2,253.8,415.3z M185.1,416L185.1,416L185.1,416
	c-1.1-0.2-1.8-1.3-1.6-2.4l0,0c0.2-1.1,1.3-1.8,2.4-1.6l0,0c1.1,0.2,1.8,1.3,1.6,2.4l0,0c-0.2,1-1,1.6-2,1.6l0,0
	C185.3,416.1,185.2,416.1,185.1,416z M263.7,413.4c-0.2-1.1,0.4-2.2,1.5-2.4l0,0c1.1-0.2,2.2,0.4,2.4,1.5l0,0
	c0.2,1.1-0.4,2.2-1.5,2.4l0,0c-0.1,0-0.3,0-0.4,0l0,0C264.8,415,264,414.4,263.7,413.4z M175.1,413.8L175.1,413.8L175.1,413.8
	c-1.1-0.3-1.7-1.4-1.5-2.4l0,0c0.3-1.1,1.4-1.7,2.5-1.5h0c1.1,0.3,1.7,1.4,1.5,2.5l0,0c-0.2,0.9-1.1,1.5-2,1.5l0,0
	C175.4,413.9,175.3,413.9,175.1,413.8z M273.6,411.1c-0.3-1.1,0.3-2.2,1.4-2.5l0,0c1.1-0.3,2.2,0.3,2.5,1.4l0,0
	c0.3,1.1-0.3,2.2-1.4,2.5l0,0c-0.2,0.1-0.4,0.1-0.5,0.1l0,0C274.6,412.5,273.8,411.9,273.6,411.1z M165.3,411.1
	c-1.1-0.3-1.7-1.5-1.3-2.5l0,0c0.3-1.1,1.5-1.7,2.5-1.3l0,0c1.1,0.3,1.7,1.5,1.3,2.5l0,0c-0.3,0.9-1.1,1.4-1.9,1.4l0,0
	C165.7,411.2,165.5,411.1,165.3,411.1z M283.3,408.2c-0.4-1.1,0.2-2.2,1.3-2.6l0,0c1.1-0.4,2.2,0.2,2.6,1.3l0,0
	c0.4,1.1-0.2,2.2-1.3,2.6l0,0c-0.2,0.1-0.4,0.1-0.6,0.1l0,0C284.3,409.6,283.5,409,283.3,408.2z M155.6,407.8
	c-1.1-0.4-1.6-1.5-1.2-2.6l0,0c0.4-1.1,1.5-1.6,2.6-1.2l0,0c1,0.4,1.6,1.6,1.2,2.6l0,0c-0.3,0.8-1.1,1.3-1.9,1.3l0,0
	C156,407.9,155.8,407.9,155.6,407.8z M292.8,404.8c-0.4-1,0.1-2.2,1.1-2.6l0,0c1-0.4,2.2,0.1,2.6,1.1l0,0c0.4,1-0.1,2.2-1.1,2.6l0,0
	c0,0,0,0,0,0l0,0c-0.2,0.1-0.5,0.1-0.8,0.1l0,0C293.9,406.1,293.1,405.6,292.8,404.8z M146.1,404.1c-1-0.4-1.5-1.6-1.1-2.6l0,0
	c0.4-1,1.6-1.5,2.6-1.1l0,0c1,0.4,1.5,1.6,1.1,2.6l0,0c-0.3,0.8-1.1,1.2-1.9,1.2l0,0C146.6,404.2,146.3,404.2,146.1,404.1z
	 M302.1,401c-0.5-1,0-2.2,1-2.7l0,0c1-0.5,2.2,0,2.7,1l0,0c0.5,1,0,2.2-1,2.7l0,0c0,0,0,0,0,0l0,0c-0.3,0.1-0.6,0.2-0.8,0.2l0,0
	C303.2,402.1,302.4,401.7,302.1,401z M136.8,399.8c-1-0.5-1.4-1.7-0.9-2.7l0,0c0.5-1,1.7-1.4,2.7-0.9l0,0c1,0.5,1.4,1.7,0.9,2.7l0,0
	c-0.3,0.7-1.1,1.1-1.8,1.1l0,0C137.4,400,137.1,400,136.8,399.8z M311.2,396.6c-0.5-1-0.1-2.2,0.9-2.7l0,0c1-0.5,2.2-0.1,2.7,0.9
	l0,0c0.5,1,0.1,2.2-0.9,2.7l0,0c-0.3,0.2-0.6,0.2-0.9,0.2l0,0C312.3,397.7,311.6,397.3,311.2,396.6z M127.7,395.1
	c-1-0.6-1.3-1.8-0.8-2.8l0,0c0.5-1,1.8-1.3,2.7-0.8l0,0c1,0.5,1.3,1.8,0.8,2.8l0,0c-0.4,0.7-1.1,1-1.8,1l0,0
	C128.4,395.3,128,395.3,127.7,395.1z M320.1,391.8c-0.6-1-0.2-2.2,0.7-2.8l0,0c1-0.6,2.2-0.2,2.8,0.7l0,0c0.6,1,0.2,2.2-0.7,2.8l0,0
	c-0.3,0.2-0.7,0.3-1,0.3l0,0C321.1,392.8,320.4,392.4,320.1,391.8z M118.9,389.9L118.9,389.9L118.9,389.9c-1-0.6-1.2-1.8-0.6-2.8
	l0,0c0.6-1,1.8-1.2,2.8-0.6l0,0c0.9,0.6,1.2,1.8,0.6,2.8l0,0c-0.4,0.6-1,1-1.7,1l0,0C119.6,390.2,119.2,390.1,118.9,389.9z
	 M328.7,386.5c-0.6-0.9-0.4-2.2,0.6-2.8l0,0c0.9-0.6,2.2-0.4,2.8,0.6l0,0c0.6,0.9,0.4,2.2-0.6,2.8l0,0c-0.3,0.2-0.7,0.3-1.1,0.3l0,0
	C329.7,387.4,329.1,387.1,328.7,386.5z M110.4,384.3c-0.9-0.6-1.1-1.9-0.5-2.8l0,0c0.6-0.9,1.9-1.1,2.8-0.5l0,0
	c0.9,0.6,1.1,1.9,0.5,2.8l0,0c-0.4,0.6-1,0.9-1.6,0.9l0,0C111.1,384.6,110.7,384.5,110.4,384.3z M337,380.8
	c-0.7-0.9-0.5-2.2,0.4-2.8l0,0c0.9-0.7,2.2-0.5,2.8,0.4l0,0c0.7,0.9,0.5,2.2-0.4,2.8l0,0c-0.4,0.3-0.8,0.4-1.2,0.4l0,0
	C338,381.7,337.4,381.4,337,380.8z M102.2,378.2c-0.9-0.7-1-1.9-0.4-2.8l0,0c0.7-0.9,2-1,2.8-0.4l0,0c0.9,0.7,1,2,0.4,2.8l0,0
	c-0.4,0.5-1,0.8-1.6,0.8l0,0C103,378.6,102.5,378.5,102.2,378.2z M345,374.7c-0.7-0.9-0.6-2.1,0.3-2.8l0,0c0.9-0.7,2.1-0.6,2.8,0.3
	l0,0c0.7,0.9,0.6,2.1-0.3,2.9l0,0c-0.4,0.3-0.8,0.5-1.3,0.5l0,0C346,375.4,345.4,375.2,345,374.7z M94.3,371.7
	c-0.8-0.7-0.9-2-0.2-2.9l0,0c0.7-0.9,2-0.9,2.8-0.2l0,0c0.8,0.7,0.9,2,0.2,2.9l0,0c-0.4,0.5-1,0.7-1.5,0.7l0,0
	C95.1,372.2,94.7,372,94.3,371.7z M352.7,368.2c-0.8-0.8-0.7-2.1,0.1-2.9l0,0c0.8-0.8,2.1-0.7,2.9,0.1l0,0c0.8,0.8,0.7,2.1-0.1,2.8
	l0,0c-0.4,0.4-0.9,0.5-1.4,0.5l0,0C353.7,368.8,353.1,368.6,352.7,368.2z M86.7,364.8c-0.8-0.8-0.8-2-0.1-2.8l0,0
	c0.8-0.8,2.1-0.8,2.9-0.1l0,0c0.8,0.8,0.8,2,0.1,2.9l0,0c-0.4,0.4-0.9,0.6-1.5,0.6l0,0C87.6,365.4,87.1,365.2,86.7,364.8z
	 M360.1,361.2c-0.8-0.8-0.8-2.1,0-2.9l0,0c0.8-0.8,2.1-0.8,2.9,0l0,0c0.8,0.8,0.8,2.1,0,2.9l0,0c-0.4,0.4-0.9,0.6-1.4,0.6l0,0
	C361,361.8,360.5,361.6,360.1,361.2z M79.6,357.6L79.6,357.6L79.6,357.6c-0.8-0.8-0.7-2.1,0.1-2.9l0,0c0.8-0.8,2.1-0.7,2.9,0.1l0,0
	c0.8,0.8,0.7,2.1-0.1,2.9l0,0c-0.4,0.4-0.9,0.6-1.4,0.6l0,0C80.5,358.2,80,358,79.6,357.6z M367.1,353.9c-0.8-0.8-0.9-2-0.2-2.9l0,0
	c0.7-0.8,2-0.9,2.8-0.2l0,0c0.8,0.7,0.9,2,0.2,2.8l0,0c-0.4,0.5-1,0.7-1.5,0.7l0,0C367.9,354.5,367.5,354.3,367.1,353.9z
	 M72.8,349.9c-0.7-0.9-0.6-2.1,0.2-2.9l0,0c0.9-0.7,2.1-0.6,2.9,0.2l0,0c0.7,0.9,0.6,2.1-0.2,2.9l0,0c-0.4,0.3-0.8,0.5-1.3,0.5l0,0
	C73.8,350.7,73.2,350.4,72.8,349.9z M373.7,346.3c-0.9-0.7-1-2-0.3-2.8l0,0c0.7-0.9,2-1,2.8-0.3l0,0c0.9,0.7,1,2,0.3,2.8l0,0
	c-0.4,0.5-1,0.8-1.6,0.8l0,0C374.5,346.7,374.1,346.6,373.7,346.3z M66.4,342L66.4,342L66.4,342c-0.7-0.9-0.5-2.1,0.4-2.8l0,0
	c0.9-0.7,2.2-0.5,2.8,0.4l0,0c0.7,0.9,0.5,2.1-0.4,2.8l0,0c-0.4,0.3-0.8,0.4-1.2,0.4l0,0C67.4,342.8,66.8,342.5,66.4,342z
	 M379.9,338.3c-0.9-0.6-1.1-1.9-0.5-2.8l0,0c0.6-0.9,1.9-1.1,2.8-0.5l0,0c0.9,0.7,1.1,1.9,0.5,2.8l0,0c-0.4,0.5-1,0.8-1.6,0.8l0,0
	C380.7,338.7,380.2,338.6,379.9,338.3z M60.4,333.7c-0.6-0.9-0.4-2.2,0.5-2.8l0,0c0.9-0.6,2.2-0.4,2.8,0.5l0,0
	c0.6,0.9,0.4,2.2-0.5,2.8l0,0c-0.3,0.2-0.7,0.3-1.1,0.3l0,0C61.5,334.6,60.8,334.3,60.4,333.7z M385.7,330c-0.9-0.6-1.2-1.8-0.6-2.8
	l0,0c0.6-0.9,1.9-1.2,2.8-0.6l0,0c0.9,0.6,1.2,1.9,0.6,2.8l0,0l0,0l0,0c-0.4,0.6-1,0.9-1.7,0.9l0,0C386.4,330.3,386,330.2,385.7,330
	z M54.9,325.1c-0.6-0.9-0.3-2.2,0.7-2.8l0,0c1-0.6,2.2-0.3,2.8,0.7l0,0c0.6,1,0.3,2.2-0.7,2.8l0,0c-0.3,0.2-0.7,0.3-1,0.3l0,0
	C56,326.1,55.3,325.8,54.9,325.1z M391,321.4c-1-0.6-1.3-1.8-0.8-2.8l0,0c0.6-1,1.8-1.3,2.8-0.8l0,0c1,0.6,1.3,1.8,0.8,2.8l0,0
	c-0.4,0.6-1.1,1-1.8,1l0,0C391.7,321.7,391.3,321.6,391,321.4z M49.8,316.3L49.8,316.3L49.8,316.3c-0.5-1-0.2-2.2,0.8-2.7l0,0
	c1-0.5,2.2-0.2,2.7,0.8l0,0c0.5,1,0.2,2.2-0.8,2.7l0,0c-0.3,0.2-0.6,0.2-0.9,0.2l0,0C50.9,317.3,50.2,317,49.8,316.3z M395.9,312.6
	c-1-0.5-1.4-1.7-0.9-2.7l0,0c0.5-1,1.7-1.4,2.7-0.9l0,0c1,0.5,1.4,1.7,0.9,2.7l0,0c-0.4,0.7-1.1,1.1-1.8,1.1l0,0
	C396.5,312.8,396.2,312.7,395.9,312.6z M45.2,307.2c-0.5-1-0.1-2.2,1-2.7l0,0c1-0.5,2.2,0,2.7,1l0,0c0.5,1,0,2.2-1,2.7l0,0
	c-0.3,0.1-0.6,0.2-0.9,0.2l0,0C46.3,308.3,45.6,307.9,45.2,307.2z M400.3,303.5c-1-0.5-1.5-1.6-1-2.7l0,0c0.4-1,1.6-1.5,2.7-1l0,0
	c1,0.5,1.5,1.6,1,2.7l0,0l0,0l0,0c-0.3,0.8-1.1,1.2-1.9,1.2l0,0C400.9,303.6,400.6,303.6,400.3,303.5z M41.1,297.9
	c-0.4-1,0.1-2.2,1.1-2.6l0,0c1-0.4,2.2,0.1,2.6,1.1l0,0c0.4,1-0.1,2.2-1.1,2.6l0,0c-0.2,0.1-0.5,0.1-0.8,0.1l0,0
	C42.2,299.1,41.4,298.7,41.1,297.9z M404.3,294.1c-1-0.4-1.6-1.6-1.2-2.6l0,0c0.4-1,1.6-1.6,2.6-1.2l0,0c1,0.4,1.6,1.6,1.2,2.6l0,0
	l0,0l0,0c-0.3,0.8-1.1,1.3-1.9,1.3l0,0C404.7,294.3,404.5,294.2,404.3,294.1z M37.5,288.3c-0.4-1,0.2-2.2,1.2-2.6l0,0
	c1-0.4,2.2,0.2,2.6,1.2l0,0c0.4,1-0.2,2.2-1.2,2.6l0,0c-0.2,0.1-0.4,0.1-0.7,0.1l0,0C38.5,289.7,37.8,289.2,37.5,288.3z
	 M407.7,284.6c-1.1-0.3-1.6-1.5-1.3-2.5l0,0c0.3-1.1,1.5-1.6,2.5-1.3l0,0c1.1,0.4,1.7,1.5,1.3,2.6l0,0c-0.3,0.9-1.1,1.4-1.9,1.4l0,0
	C408.1,284.7,407.9,284.7,407.7,284.6z M34.3,278.6L34.3,278.6L34.3,278.6c-0.3-1.1,0.3-2.2,1.4-2.5l0,0c1.1-0.3,2.2,0.3,2.5,1.4
	l0,0c0.3,1.1-0.3,2.2-1.4,2.5l0,0c-0.2,0-0.4,0.1-0.6,0.1l0,0C35.4,280.1,34.6,279.5,34.3,278.6z M410.7,275
	c-1.1-0.3-1.7-1.4-1.4-2.5l0,0c0.3-1.1,1.4-1.7,2.5-1.4l0,0c1.1,0.3,1.7,1.4,1.4,2.5l0,0c0,0,0,0,0,0l0,0c-0.2,0.9-1.1,1.5-2,1.5
	l0,0C411,275,410.8,275,410.7,275z M31.7,268.8c-0.2-1.1,0.4-2.2,1.5-2.4l0,0c1.1-0.3,2.2,0.4,2.4,1.5l0,0c0.3,1.1-0.4,2.2-1.5,2.4
	l0,0c-0.2,0-0.3,0.1-0.5,0.1l0,0C32.8,270.3,31.9,269.7,31.7,268.8z M413.1,265.2c-1.1-0.2-1.8-1.3-1.6-2.4l0,0
	c0.2-1.1,1.3-1.8,2.4-1.6l0,0c1.1,0.2,1.8,1.3,1.6,2.4l0,0l0,0l0,0c-0.2,0.9-1,1.6-2,1.6l0,0C413.4,265.2,413.2,265.2,413.1,265.2z
	 M29.6,258.8C29.6,258.8,29.6,258.8,29.6,258.8L29.6,258.8c-0.2-1.1,0.5-2.2,1.6-2.4l0,0c1.1-0.2,2.1,0.5,2.4,1.6l0,0
	c0.2,1.1-0.5,2.2-1.6,2.4l0,0c-0.1,0-0.2,0-0.4,0l0,0C30.6,260.4,29.8,259.7,29.6,258.8z M415,255.2c-1.1-0.2-1.9-1.2-1.7-2.3l0,0
	c0.2-1.1,1.2-1.9,2.3-1.7l0,0c1.1,0.2,1.9,1.2,1.7,2.3l0,0l0,0l0,0c-0.1,1-1,1.7-2,1.7l0,0C415.2,255.3,415.1,255.3,415,255.2z
	 M28,248.7c-0.1-1.1,0.6-2.1,1.7-2.3l0,0c1.1-0.2,2.1,0.6,2.3,1.7l0,0c0.1,1.1-0.6,2.1-1.7,2.3l0,0c-0.1,0-0.2,0-0.3,0l0,0
	C29,250.4,28.2,249.7,28,248.7z M416.4,245.2c-1.1-0.1-1.9-1.1-1.8-2.2l0,0c0.1-1.1,1.1-1.9,2.2-1.8l0,0c1.1,0.1,1.9,1.1,1.8,2.2
	l0,0c-0.1,1-1,1.8-2,1.8l0,0C416.5,245.2,416.5,245.2,416.4,245.2z M27,238.5c-0.1-1.1,0.8-2.1,1.9-2.2l0,0c1.1-0.1,2.1,0.7,2.2,1.9
	v0c0.1,1.1-0.7,2.1-1.9,2.2l0,0c-0.1,0-0.1,0-0.2,0l0,0C27.9,240.4,27.1,239.6,27,238.5z M417.3,235.2c-1.1-0.1-2-1-1.9-2.1l0,0
	c0.1-1.1,1-2,2.1-1.9l0,0c1.1,0,2,1,1.9,2.1l0,0c0,1.1-1,1.9-2,1.9l0,0C417.4,235.2,417.3,235.2,417.3,235.2z M26.4,228.3
	c0-1.1,0.9-2.1,2-2.1l0,0c1.1,0,2,0.8,2.1,2l0,0c0,1.1-0.9,2-2,2.1l0,0c0,0,0,0-0.1,0l0,0C27.4,230.3,26.5,229.4,26.4,228.3z
	 M415.6,223L415.6,223c0-0.1,0-0.1,0-0.2l0,0c0-0.1,0-0.1,0-0.2l0,0c0-1.1,0.9-2,2-2l0,0c1.1,0,2,0.9,2,2l0,0c0,0.1,0,0.1,0,0.2l0,0
	c0,0.1,0,0.1,0,0.2l0,0l0,0l0,0c0,1.1-0.9,2-2,2l0,0C416.5,225.1,415.6,224.2,415.6,223z M28.4,220.2c-1.1,0-2-0.9-2-2.1l0,0l0,0
	l0,0c0-1.1,1-2,2.1-2l0,0c1.1,0,2,1,2,2.1l0,0C30.5,219.3,29.6,220.2,28.4,220.2L28.4,220.2C28.4,220.2,28.4,220.2,28.4,220.2z
	 M415.4,212.6L415.4,212.6c-0.1-1.1,0.8-2.1,1.9-2.1l0,0c1.1-0.1,2.1,0.8,2.1,1.9l0,0l0,0l0,0c0.1,1.1-0.8,2.1-1.9,2.1l0,0
	c0,0-0.1,0-0.1,0l0,0C416.3,214.6,415.4,213.7,415.4,212.6z M28.8,210.1c-1.1-0.1-2-1.1-1.9-2.2l0,0c0.1-1.1,1.1-2,2.2-1.9l0,0
	c1.1,0.1,2,1.1,1.9,2.2l0,0c-0.1,1.1-1,1.9-2,1.9l0,0C28.9,210.1,28.9,210.1,28.8,210.1z M414.6,202.7c-0.1-1.1,0.7-2.1,1.8-2.2l0,0
	c1.1-0.1,2.1,0.7,2.2,1.8l0,0l0,0l0,0c0.1,1.1-0.7,2.1-1.8,2.2l0,0c-0.1,0-0.1,0-0.2,0l0,0C415.5,204.5,414.7,203.7,414.6,202.7z
	 M29.7,200.1c-1.1-0.1-1.9-1.2-1.8-2.3l0,0c0.1-1.1,1.2-1.9,2.3-1.7l0,0c1.1,0.1,1.9,1.2,1.8,2.3l0,0c-0.1,1-1,1.8-2,1.8l0,0
	C29.9,200.1,29.8,200.1,29.7,200.1z M413.3,192.8c-0.2-1.1,0.6-2.1,1.7-2.3l0,0c1.1-0.2,2.1,0.6,2.3,1.7l0,0
	c0.2,1.1-0.6,2.1-1.7,2.3l0,0c-0.1,0-0.2,0-0.3,0l0,0C414.3,194.5,413.4,193.8,413.3,192.8z M31.2,190.1c-1.1-0.2-1.8-1.2-1.6-2.4
	l0,0c0.2-1.1,1.2-1.8,2.4-1.6l0,0c1.1,0.2,1.8,1.2,1.6,2.4l0,0c-0.2,1-1,1.7-2,1.7l0,0C31.4,190.1,31.3,190.1,31.2,190.1z
	 M411.4,182.9c-0.2-1.1,0.5-2.2,1.6-2.4l0,0c1.1-0.2,2.2,0.5,2.4,1.6l0,0c0.2,1.1-0.5,2.2-1.6,2.4l0,0c-0.1,0-0.3,0-0.4,0l0,0
	C412.5,184.5,411.6,183.9,411.4,182.9z M33.1,180.1c-1.1-0.2-1.8-1.3-1.5-2.4l0,0c0.2-1.1,1.3-1.8,2.4-1.5l0,0
	c1.1,0.3,1.8,1.4,1.5,2.4l0,0c-0.2,0.9-1.1,1.6-2,1.6l0,0C33.4,180.2,33.3,180.2,33.1,180.1z M409.1,173.2c-0.3-1.1,0.4-2.2,1.4-2.5
	l0,0c1.1-0.3,2.2,0.4,2.5,1.4l0,0c0.3,1.1-0.4,2.2-1.4,2.5l0,0c-0.2,0-0.4,0.1-0.5,0.1l0,0C410.2,174.7,409.4,174.1,409.1,173.2z
	 M35.6,170.3c-1.1-0.3-1.7-1.4-1.4-2.5l0,0c0.3-1.1,1.4-1.7,2.5-1.4l0,0c1.1,0.3,1.7,1.4,1.4,2.5l0,0c-0.3,0.9-1.1,1.5-1.9,1.5l0,0
	C36,170.4,35.8,170.4,35.6,170.3z M406.3,163.6L406.3,163.6c-0.3-1.1,0.2-2.2,1.3-2.5l0,0c1.1-0.3,2.2,0.2,2.5,1.3l0,0
	c0.3,1.1-0.2,2.2-1.3,2.6l0,0c-0.2,0.1-0.4,0.1-0.6,0.1l0,0C407.4,165,406.6,164.5,406.3,163.6z M38.6,160.7
	c-1.1-0.4-1.6-1.5-1.2-2.6l0,0c0.4-1.1,1.5-1.6,2.6-1.2l0,0c1,0.4,1.6,1.5,1.2,2.6l0,0c-0.3,0.8-1.1,1.4-1.9,1.4l0,0
	C39,160.8,38.8,160.8,38.6,160.7z M403,154.2c-0.4-1,0.1-2.2,1.2-2.6l0,0c1-0.4,2.2,0.1,2.6,1.2l0,0c0,0,0,0,0,0l0,0
	c0.4,1-0.1,2.2-1.2,2.6l0,0c-0.2,0.1-0.5,0.1-0.7,0.1l0,0C404,155.5,403.3,155,403,154.2z M42.1,151.2c-1-0.4-1.5-1.6-1.1-2.6l0,0
	c0.4-1,1.6-1.5,2.6-1.1l0,0c1,0.4,1.5,1.6,1.1,2.6l0,0c-0.3,0.8-1.1,1.3-1.9,1.3l0,0C42.6,151.3,42.3,151.3,42.1,151.2z M399.1,145
	c-0.5-1,0-2.2,1-2.7l0,0c1-0.5,2.2,0,2.7,1l0,0c0.5,1,0,2.2-1,2.7l0,0c-0.3,0.1-0.5,0.2-0.8,0.2l0,0
	C400.2,146.2,399.5,145.7,399.1,145z M46.1,141.9c-1-0.5-1.4-1.7-1-2.7l0,0c0.5-1,1.7-1.4,2.7-1l0,0c1,0.5,1.4,1.7,1,2.7l0,0
	c-0.3,0.7-1.1,1.1-1.8,1.1l0,0C46.6,142.1,46.3,142,46.1,141.9z M394.9,136L394.9,136c-0.5-1-0.1-2.2,0.9-2.7l0,0
	c1-0.5,2.2-0.1,2.7,0.9l0,0c0.5,1,0.1,2.2-0.9,2.7l0,0c-0.3,0.1-0.6,0.2-0.9,0.2l0,0C395.9,137.1,395.2,136.7,394.9,136z
	 M50.5,132.8c-1-0.5-1.4-1.8-0.8-2.7l0,0c0.5-1,1.8-1.3,2.7-0.8l0,0c1,0.5,1.4,1.8,0.8,2.7l0,0c-0.4,0.7-1.1,1.1-1.8,1.1l0,0
	C51.2,133,50.8,133,50.5,132.8z M390.1,127.2c-0.6-1-0.2-2.2,0.7-2.8l0,0c1-0.6,2.2-0.2,2.8,0.7l0,0c0.6,1,0.2,2.2-0.7,2.8l0,0
	c-0.3,0.2-0.7,0.3-1,0.3l0,0C391.2,128.2,390.5,127.8,390.1,127.2z M55.5,124c-0.9-0.6-1.3-1.8-0.7-2.8l0,0c0.6-1,1.8-1.3,2.8-0.7
	l0,0c1,0.6,1.3,1.8,0.7,2.8l0,0c-0.4,0.6-1.1,1-1.7,1l0,0C56.1,124.3,55.8,124.2,55.5,124z M384.9,118.7c-0.6-0.9-0.3-2.2,0.6-2.8
	l0,0c0.9-0.6,2.2-0.3,2.8,0.6l0,0c0.6,0.9,0.3,2.2-0.6,2.8l0,0c-0.3,0.2-0.7,0.3-1.1,0.3l0,0C385.9,119.6,385.3,119.3,384.9,118.7z
	 M60.8,115.4c-0.9-0.6-1.2-1.9-0.5-2.8l0,0c0.6-0.9,1.9-1.2,2.8-0.5l0,0c0.9,0.6,1.2,1.9,0.5,2.8l0,0c-0.4,0.6-1,0.9-1.7,0.9l0,0
	C61.6,115.8,61.2,115.6,60.8,115.4z M379.3,110.4L379.3,110.4c-0.6-0.9-0.5-2.2,0.4-2.8l0,0c0.9-0.6,2.2-0.4,2.8,0.5l0,0
	c0.7,0.9,0.4,2.2-0.5,2.8l0,0c-0.4,0.3-0.8,0.4-1.2,0.4l0,0C380.3,111.2,379.7,111,379.3,110.4z M66.7,107.1
	c-0.9-0.7-1.1-1.9-0.4-2.8l0,0c0.7-0.9,1.9-1.1,2.8-0.4l0,0c0.9,0.7,1.1,1.9,0.4,2.8l0,0c-0.4,0.5-1,0.8-1.6,0.8l0,0
	C67.4,107.5,67,107.4,66.7,107.1z M373.2,102.5L373.2,102.5c-0.7-0.9-0.6-2.1,0.3-2.8l0,0c0.9-0.7,2.1-0.6,2.8,0.3l0,0
	c0.7,0.9,0.6,2.1-0.3,2.8l0,0c-0.4,0.3-0.8,0.4-1.3,0.4l0,0C374.2,103.2,373.6,103,373.2,102.5z M72.9,99.2c-0.9-0.7-1-2-0.2-2.8
	l0,0c0.7-0.9,2-1,2.8-0.2l0,0c0.9,0.7,1,2,0.2,2.8l0,0c-0.4,0.5-1,0.7-1.6,0.7l0,0C73.7,99.7,73.3,99.5,72.9,99.2z M366.8,94.8
	c-0.7-0.8-0.7-2.1,0.2-2.8l0,0c0.8-0.8,2.1-0.7,2.8,0.2l0,0l0,0l0,0c0.8,0.8,0.7,2.1-0.2,2.9l0,0c-0.4,0.3-0.9,0.5-1.3,0.5l0,0
	C367.7,95.5,367.2,95.3,366.8,94.8z M79.5,91.6c-0.8-0.8-0.9-2-0.1-2.9l0,0c0,0,0,0,0,0l0,0c0.8-0.8,2-0.9,2.9-0.1l0,0
	c0.8,0.8,0.9,2,0.1,2.9l0,0c-0.4,0.4-0.9,0.6-1.5,0.6l0,0C80.4,92.1,79.9,91.9,79.5,91.6z M359.9,87.6c-0.8-0.8-0.8-2.1,0-2.9l0,0
	c0.8-0.8,2.1-0.8,2.9,0l0,0l0,0l0,0c0.8,0.8,0.8,2.1,0,2.9l0,0c-0.4,0.4-0.9,0.6-1.4,0.6l0,0C360.8,88.2,360.3,88,359.9,87.6z
	 M86.5,84.3c-0.8-0.8-0.8-2.1,0-2.9l0,0c0.8-0.8,2.1-0.8,2.9,0.1l0,0c0.8,0.8,0.8,2.1,0,2.9l0,0c-0.4,0.4-0.9,0.6-1.4,0.6l0,0
	C87.5,84.9,86.9,84.7,86.5,84.3z M352.7,80.6c-0.8-0.8-0.9-2-0.1-2.9l0,0c0.8-0.8,2-0.9,2.9-0.1l0,0l0,0l0,0c0.8,0.8,0.9,2,0.1,2.9
	l0,0c-0.4,0.4-1,0.7-1.5,0.7l0,0C353.6,81.2,353.1,81,352.7,80.6z M93.9,77.4c-0.7-0.9-0.6-2.1,0.2-2.9l0,0l0,0l0,0
	c0.8-0.7,2.1-0.6,2.8,0.2l0,0c0.7,0.8,0.6,2.1-0.2,2.8l0,0c-0.4,0.3-0.9,0.5-1.3,0.5l0,0C94.9,78.1,94.3,77.9,93.9,77.4z
	 M345.1,74.1c-0.9-0.7-1-2-0.3-2.8l0,0c0.7-0.9,2-1,2.8-0.3l0,0c0.9,0.7,1,2,0.3,2.8l0,0c-0.4,0.5-1,0.7-1.6,0.7l0,0
	C346,74.5,345.5,74.4,345.1,74.1z M101.6,70.9c-0.7-0.9-0.5-2.1,0.3-2.8l0,0c0.9-0.7,2.2-0.5,2.8,0.3l0,0c0.7,0.9,0.5,2.1-0.3,2.8
	l0,0c-0.4,0.3-0.8,0.4-1.2,0.4l0,0C102.6,71.7,102,71.4,101.6,70.9z M337.2,67.9c-0.9-0.7-1.1-1.9-0.4-2.8l0,0
	c0.7-0.9,1.9-1.1,2.8-0.4l0,0c0.9,0.7,1.1,1.9,0.4,2.8l0,0c-0.4,0.5-1,0.8-1.6,0.8l0,0C338,68.3,337.6,68.2,337.2,67.9z M109.7,64.8
	c-0.6-0.9-0.4-2.2,0.5-2.8l0,0c0.9-0.6,2.2-0.4,2.8,0.5l0,0c0.6,0.9,0.4,2.2-0.5,2.8l0,0c-0.4,0.2-0.8,0.4-1.2,0.4l0,0
	C110.7,65.7,110.1,65.4,109.7,64.8z M329,62.2L329,62.2c-0.9-0.6-1.2-1.9-0.6-2.8l0,0c0.6-0.9,1.9-1.2,2.8-0.6l0,0
	c0.9,0.6,1.2,1.9,0.6,2.8l0,0c-0.4,0.6-1,0.9-1.7,0.9l0,0C329.8,62.5,329.4,62.4,329,62.2z M118,59.1c-0.6-0.9-0.3-2.2,0.6-2.8l0,0
	l0,0l0,0c1-0.6,2.2-0.3,2.8,0.6l0,0c0.6,1,0.3,2.2-0.6,2.8l0,0c-0.3,0.2-0.7,0.3-1.1,0.3l0,0C119.1,60.1,118.4,59.7,118,59.1z
	 M320.5,56.9c-1-0.6-1.3-1.8-0.7-2.8l0,0c0.6-1,1.8-1.3,2.8-0.7l0,0c1,0.6,1.3,1.8,0.7,2.8l0,0c-0.4,0.6-1,1-1.8,1l0,0
	C321.2,57.2,320.9,57.1,320.5,56.9z M126.7,53.9c-0.5-1-0.2-2.2,0.8-2.8l0,0c1-0.5,2.2-0.2,2.8,0.8l0,0c0.5,1,0.2,2.2-0.8,2.8l0,0
	c-0.3,0.2-0.6,0.3-1,0.3l0,0C127.7,54.9,127,54.6,126.7,53.9z M311.8,52.1c-1-0.5-1.4-1.7-0.9-2.7l0,0c0.5-1,1.7-1.4,2.7-0.9l0,0
	l0,0l0,0c1,0.5,1.4,1.7,0.9,2.7l0,0c-0.4,0.7-1.1,1.1-1.8,1.1l0,0C312.4,52.3,312.1,52.2,311.8,52.1z M135.6,49.1
	c-0.5-1-0.1-2.2,0.9-2.7l0,0c1-0.5,2.2-0.1,2.7,0.9l0,0c0.5,1,0.1,2.2-0.9,2.7l0,0c-0.3,0.1-0.6,0.2-0.9,0.2l0,0
	C136.6,50.3,135.9,49.8,135.6,49.1z M302.8,47.7L302.8,47.7c-1-0.5-1.5-1.7-1-2.7l0,0c0.5-1,1.7-1.5,2.7-1l0,0c1,0.5,1.5,1.7,1,2.7
	l0,0c-0.3,0.8-1.1,1.2-1.8,1.2l0,0C303.3,47.9,303,47.8,302.8,47.7z M144.7,44.8c-0.4-1,0-2.2,1.1-2.6l0,0c1-0.4,2.2,0,2.6,1.1l0,0
	c0.4,1,0,2.2-1.1,2.6l0,0c-0.3,0.1-0.5,0.2-0.8,0.2l0,0C145.8,46,145,45.6,144.7,44.8z M293.6,43.8c-1-0.4-1.5-1.6-1.1-2.6l0,0
	c0.4-1,1.6-1.5,2.6-1.1l0,0c1,0.4,1.6,1.6,1.1,2.6l0,0c-0.3,0.8-1.1,1.3-1.9,1.3l0,0C294.1,43.9,293.8,43.9,293.6,43.8z M154,41
	c-0.4-1.1,0.2-2.2,1.2-2.6l0,0c1-0.4,2.2,0.1,2.6,1.2l0,0c0.4,1.1-0.2,2.2-1.2,2.6l0,0c-0.2,0.1-0.5,0.1-0.7,0.1l0,0
	C155.1,42.3,154.3,41.8,154,41z M284.1,40.3c-1.1-0.4-1.6-1.5-1.3-2.6l0,0c0.4-1.1,1.5-1.6,2.6-1.3l0,0c1.1,0.4,1.6,1.5,1.3,2.6l0,0
	c-0.3,0.8-1.1,1.4-1.9,1.4l0,0C284.6,40.4,284.4,40.4,284.1,40.3z M163.6,37.7c-0.3-1.1,0.3-2.2,1.3-2.5l0,0
	c1.1-0.3,2.2,0.3,2.5,1.3l0,0c0.3,1.1-0.3,2.2-1.3,2.5v0c-0.2,0.1-0.4,0.1-0.6,0.1l0,0C164.6,39.1,163.8,38.5,163.6,37.7z
	 M274.6,37.4c-1.1-0.3-1.7-1.4-1.4-2.5l0,0c0.3-1.1,1.4-1.7,2.5-1.4l0,0c1.1,0.3,1.7,1.4,1.4,2.5l0,0c-0.2,0.9-1.1,1.5-1.9,1.5l0,0
	C274.9,37.5,274.8,37.5,274.6,37.4z M173.3,34.8c-0.3-1.1,0.4-2.2,1.5-2.4l0,0c1.1-0.3,2.2,0.4,2.5,1.5l0,0c0.3,1.1-0.4,2.2-1.5,2.5
	v0c-0.2,0.1-0.3,0.1-0.5,0.1l0,0C174.3,36.4,173.5,35.8,173.3,34.8z M264.9,35c-1.1-0.2-1.8-1.3-1.5-2.4l0,0
	c0.2-1.1,1.3-1.8,2.4-1.5l0,0c1.1,0.2,1.8,1.3,1.5,2.4l0,0c-0.2,0.9-1.1,1.6-2,1.6l0,0C265.2,35.1,265,35,264.9,35z M183.1,32.5
	c-0.2-1.1,0.5-2.2,1.6-2.4l0,0c1.1-0.2,2.2,0.5,2.4,1.6l0,0c0.2,1.1-0.5,2.1-1.6,2.4l0,0c-0.1,0-0.3,0-0.4,0l0,0
	C184.1,34.1,183.3,33.5,183.1,32.5z M255.1,33.1c-1.1-0.2-1.8-1.2-1.6-2.3l0,0c0.2-1.1,1.2-1.8,2.3-1.7l0,0c1.1,0.2,1.8,1.2,1.7,2.3
	l0,0c-0.2,1-1,1.7-2,1.7l0,0C255.3,33.1,255.2,33.1,255.1,33.1z M193,30.7c-0.2-1.1,0.6-2.1,1.7-2.3l0,0c1.1-0.2,2.1,0.6,2.3,1.7
	l0,0c0.2,1.1-0.6,2.1-1.7,2.3l0,0c-0.1,0-0.2,0-0.3,0l0,0C194,32.4,193.2,31.7,193,30.7z M245.2,31.7L245.2,31.7
	c-1.1-0.1-1.9-1.1-1.8-2.2l0,0c0.1-1.1,1.1-1.9,2.2-1.8l0,0c1.1,0.1,1.9,1.1,1.8,2.2l0,0c-0.1,1-1,1.8-2,1.8l0,0
	C245.3,31.7,245.2,31.7,245.2,31.7z M203,29.4c-0.1-1.1,0.7-2.1,1.8-2.2l0,0c1.1-0.1,2.1,0.7,2.2,1.8l0,0c0.1,1.1-0.7,2.1-1.8,2.2
	l0,0c-0.1,0-0.1,0-0.2,0l0,0C204,31.3,203.1,30.5,203,29.4z M235.2,30.8c-1.1-0.1-2-1-1.9-2.1l0,0c0.1-1.1,1-2,2.1-1.9l0,0
	c1.1,0.1,2,1,1.9,2.1l0,0c-0.1,1.1-1,1.9-2,1.9l0,0C235.3,30.8,235.3,30.8,235.2,30.8z M213.1,28.7c0-1.1,0.8-2.1,1.9-2.1l0,0l0,0
	l0,0c1.1,0,2.1,0.8,2.1,1.9l0,0c0,1.1-0.8,2-1.9,2.1l0,0c0,0,0,0-0.1,0l0,0C214.1,30.6,213.2,29.8,213.1,28.7z M225.2,30.5
	c-1.1,0-2-0.9-2-2l0,0c0-1.1,0.9-2,2-2l0,0l0,0l0,0c1.1,0,2,0.9,2,2l0,0C227.2,29.6,226.3,30.5,225.2,30.5L225.2,30.5
	C225.2,30.5,225.2,30.5,225.2,30.5z"/>
<g>
	<g>
		<path class="st0" d="M100.3,211.7c-4,0.5-4.6,1.2-6.2,5.8c-1.6,4.7-5.8,18.2-9.2,29.1h-2.7c-2.9-8.2-6.2-17.3-9.3-25.6
			c-3,8.8-6,17.4-8.7,25.6h-2.7c-2.4-8.4-5.8-19.5-8.9-29.3c-1.4-4.3-2.2-5.1-5.6-5.5v-1.9h15.7v1.9c-4.1,0.4-4.3,1.2-3.5,4
			c1.9,6.8,4,13.6,6,20.3c2.9-8.2,5.8-17,8.5-25.8h2.5c3.1,8.8,6.2,17.3,9.3,25.9c2.2-6.5,5-16,5.9-19.7c0.8-3.3,0.3-4.2-4.5-4.6
			v-1.9h13.3V211.7z"/>
		<path class="st0" d="M101.3,245.9V244c4.3-0.4,4.8-0.7,4.8-5.4v-21.5c0-4.7-0.5-5.1-4.8-5.5v-1.9h16.4v1.9
			c-4.3,0.4-4.8,0.8-4.8,5.5v21.5c0,4.7,0.5,4.9,4.8,5.4v1.9H101.3z"/>
		<path class="st0" d="M160.9,211.7c-3.4,0.4-4.5,1.1-4.7,3.6c-0.1,2-0.3,4.1-0.3,9v22.2h-2.8l-23.4-28.2v13c0,4.9,0.1,7.2,0.3,8.8
			c0.2,2.6,1.4,3.7,5.5,4v1.9h-13.7V244c3.3-0.3,4.6-1.1,4.9-3.8c0.2-1.9,0.3-4.1,0.3-9v-13.5c0-1.7-0.1-2.8-1.1-4.2
			c-1-1.4-2.3-1.6-4.8-1.9v-1.9h10l22,25.8v-11.3c0-4.9-0.1-7-0.2-8.9c-0.2-2.4-1.2-3.5-5.7-3.7v-1.9h13.7V211.7z"/>
		<path class="st0" d="M194.1,236.7c-0.3,1.5-1.8,7.6-2.4,9.2h-28.2V244c5.1-0.5,5.4-0.8,5.4-5.4v-21.5c0-4.8-0.6-5.1-4.6-5.5v-1.9
			h17.7c5.6,0,7.6-0.1,8.4-0.1c0.1,1.1,0.3,5.6,0.5,8.8l-2,0.3c-0.5-1.9-1.3-3.8-2.1-4.8c-1-1.4-1.9-1.7-4.9-1.7h-4.2
			c-2,0-2.2,0.1-2.2,1.9V226h5.7c3.5,0,3.9-0.8,4.7-4.7h2v12.1h-2c-0.8-4.1-1.3-4.7-4.8-4.7h-5.6v10.1c0,3.9,0.5,4.7,3.7,4.8h4.4
			c3.2,0,3.9-0.4,5.2-1.9c1.3-1.5,2.4-3.6,3.3-5.4L194.1,236.7z"/>
		<path class="st0" d="M249.5,211.7c-4.4,0.4-4.8,0.8-4.8,5.4v21.6c0,4.6,0.5,4.9,4.8,5.3v1.9h-16.4V244c4.5-0.6,4.8-0.7,4.8-5.3
			V228h-16.4v10.7c0,4.6,0.5,4.8,4.8,5.3v1.9h-16.3V244c4.2-0.5,4.8-0.7,4.8-5.3V217c0-4.6-0.5-5-4.8-5.4v-1.9h16.3v1.9
			c-4.3,0.4-4.8,0.8-4.8,5.4v8.3H238V217c0-4.6-0.6-5-4.8-5.4v-1.9h16.4V211.7z"/>
		<path class="st0" d="M273.4,209c10,0,18.4,7.4,18.4,18.4c0,11.9-8.3,19.3-18.7,19.3c-11,0-18.9-8.1-18.9-18.7
			C254.2,218.3,261.1,209,273.4,209z M272.5,211.3c-5.9,0-10.5,5.4-10.5,15.5c0,9.7,4.4,17.6,12,17.6c5.8,0,10.2-5.1,10.2-15.4
			C284.2,217.7,279.2,211.3,272.5,211.3z"/>
		<path class="st0" d="M334.4,211.7c-3.5,0.3-4.6,1.3-4.8,3.5c-0.1,1.5-0.2,3.6-0.2,7.9v6.8c0,5.1-0.7,9.7-3.9,13.1
			c-2.6,2.7-6.5,3.7-10.4,3.7c-3.5,0-7.1-0.7-9.7-2.8c-3.3-2.5-4.8-6-4.8-12.3v-14.1c0-5.1-0.5-5.4-4.8-5.8v-1.9h16.3v1.9
			c-4.3,0.4-4.7,0.8-4.7,5.8v14.5c0,6.9,3.3,11.1,9.5,11.1c7.1,0,9.8-4.9,9.8-13.5V223c0-4.3-0.2-6.3-0.3-7.9
			c-0.2-2.5-1.7-3.2-5.6-3.4v-1.9h13.6V211.7z"/>
		<path class="st0" d="M357.3,218.7c-1.1-3.6-2.6-7.5-7.8-7.5c-3.6,0-5.5,2.6-5.5,5.6c0,3.3,2.2,5.2,7,7.6c6.2,3.1,9.7,5.9,9.7,11.3
			c0,6.3-5.3,11-13,11c-3.5,0-6.5-0.9-9-1.8c-0.4-1.4-1.2-6.5-1.6-9.2l2-0.5c1.1,3.6,4,9.2,9.5,9.2c3.6,0,5.8-2.3,5.8-5.9
			c0-3.6-2.1-5.4-6.8-8c-5.8-3.1-9.4-5.9-9.4-11.4c0-5.5,4.4-10.2,12.4-10.2c3.6,0,6.5,0.8,7.7,1c0.2,2,0.6,4.7,1,8.2L357.3,218.7z"
			/>
		<path class="st0" d="M395.2,236.7c-0.3,1.5-1.8,7.6-2.4,9.2h-28.2V244c5.1-0.5,5.4-0.8,5.4-5.4v-21.5c0-4.8-0.6-5.1-4.6-5.5v-1.9
			h17.7c5.6,0,7.6-0.1,8.4-0.1c0.1,1.1,0.3,5.6,0.5,8.8l-2,0.3c-0.5-1.9-1.3-3.8-2.1-4.8c-1-1.4-1.9-1.7-4.9-1.7H379
			c-2,0-2.2,0.1-2.2,1.9V226h5.7c3.5,0,3.9-0.8,4.7-4.7h2v12.1h-2c-0.8-4.1-1.3-4.7-4.8-4.7h-5.6v10.1c0,3.9,0.5,4.7,3.7,4.8h4.4
			c3.2,0,3.9-0.4,5.2-1.9c1.3-1.5,2.4-3.6,3.3-5.4L395.2,236.7z"/>
	</g>
</g>
</svg>
