<svg width="1170.4691" height="250.85414" xmlns="http://www.w3.org/2000/svg">

 <metadata id="metadata7">image/svg+xml</metadata>
 <g>
  <title>background</title>
  <rect fill="none" id="canvas_background" height="402" width="582" y="-1" x="-1"/>
 </g>
 <g>
  <title>Layer 1</title>
  <g id="layer1">
   <rect y="-547.14468" x="-124.653784" height="414.28571" width="442.85715" id="rect4224"/>
   <path fill="#000000" id="path4432" d="m388.835996,0.776321c-20.5942,0.78244 -27.336,2.1504 -27.336,2.15039c-50.4,8.20001 -89.5,55.09961 -89.5,55.09961c-9.7,14.1 -30.5996,17.5 -30.5996,17.5l-184.0996,5.20118c-3,-3 -7,-4 -7,-4l-22.4004,0c0,0 -3.5988,0.1 -6.2988,5l-2.1016,-0.30079c-16.2,-1.7 -18.5,7.59961 -18.5,7.59961c-0.4,6.2 -0.9,29.8008 -1,35.80079l0,0.0996l0,0.59961l0,0.60157l0,0.0996c0.1,6 0.7,29.59882 1,35.79882c0,0 2.3,9.40118 18.5,7.70118l2.1016,0.29882c2.7,4.9 6.2988,5.70118 6.2988,5.70118l22.4004,0c0,0 4,-1.80078 7,-4.80079l184.0996,4.80079c0,0 20.8996,3.30039 30.5996,17.40039c0,0 39.1,46.8 89.5,55c0,0 14.0012,4.29961 97.70121,2.09961l15.0918,0.0176l-85.45701,-249.46875l0,-0.00002z"/>
   <rect y="-596.524879" x="-647.510904" height="325.71429" width="734.28571" id="rect4313"/>
   <rect y="-305.096299" x="-193.225214" height="157.14285" width="342.85715" id="rect4321"/>
   <g font-style="normal" font-weight="normal" font-size="40px" font-family="sans-serif" fill="#000000" stroke-width="1px" id="flowRoot4204">
    <path fill="#722f37" id="path4503" d="m417.729727,8.812448l9.5175,0c5.64,0.3525 7.4025,2.4675 9.5175,8.8125l80.0175,232.65l18.33,-3.525l47.5875,-140.295l49.35,143.82l18.33,-3.525l77.9025,-228.42c1.7625,-5.9925 5.64,-8.8125 13.0425,-9.5175l9.87,0c1.41,-1.41 1.7625,-2.82 1.7625,-4.5825c0,-1.41 -0.705,-3.1725 -1.7625,-4.23l-60.63,0c-1.7625,1.41 -2.4675,2.82 -2.4675,4.5825c0,1.41 0.705,2.82 2.4675,4.23l13.7475,0c4.5825,0.705 7.755,3.1725 8.1075,8.8125l-64.86,192.465l-66.27,-192.465c-2.4675,-6.6975 3.8775,-8.46 9.87,-8.8125l9.5175,0c1.41,-1.41 1.7625,-2.82 1.7625,-4.5825c0,-1.41 -0.705,-3.1725 -1.7625,-4.23l-67.68,0c-1.41,1.41 -2.4675,2.82 -1.7625,4.5825c0,1.41 0.705,2.82 1.7625,4.23l9.87,0c4.5825,0.3525 7.05,2.82 9.5175,8.8125l22.2075,65.565l-42.6525,126.9l-66.27,-192.465c-2.115,-6.345 -0.3525,-8.1075 8.46,-8.8125c2.4675,0 6.345,0 10.9275,0c1.41,-1.41 1.7625,-2.82 1.7625,-4.5825c0,-1.41 -0.705,-3.1725 -1.7625,-4.23l-67.3275,0c-1.0575,1.41 -1.7625,2.82 -1.7625,4.23c-0.705,1.41 0.3525,2.82 1.7625,4.5825z"/>
    <path fill="#722f37" id="path4505" d="m818.147697,88.124948c-19.035,0 -33.135,17.625 -52.17,17.625l19.3875,17.625l0,105.75c0,6.6975 -3.525,8.46 -8.1075,8.8125l-11.28,0c-1.0575,1.41 -1.41,2.82 -1.41,4.23c-0.3525,1.41 0.3525,2.82 1.41,4.5825l67.3275,0c1.0575,-1.0575 1.7625,-2.82 1.7625,-4.23c0,-1.7625 -0.3525,-3.1725 -1.7625,-4.5825l-11.28,0c-4.5825,-0.3525 -7.755,-2.115 -7.755,-8.8125l0,-123.375c0,-5.9925 1.41,-11.985 3.8775,-17.625zm-17.9775,-78.6075c-11.28,0 -19.3875,8.46 -19.3875,17.9775c0,9.87 8.1075,17.625 19.3875,17.625c10.2225,0 19.3875,-7.755 19.3875,-17.625c0,-9.87 -8.8125,-17.9775 -19.3875,-17.9775z"/>
    <path fill="#722f37" id="path4507" d="m887.649657,88.124948c-19.035,0 -33.135,17.625 -52.17,17.625l19.3875,17.625l0,105.75c0,6.6975 -3.525,8.46 -8.1075,8.8125l-11.28,0c-1.0575,1.41 -1.41,2.82 -1.41,4.23c-0.3525,1.41 0.3525,2.82 1.41,4.5825l67.3275,0c1.0575,-1.0575 1.7625,-2.82 1.7625,-4.23c0,-1.7625 -0.3525,-3.1725 -1.7625,-4.5825l-11.28,0c-4.5825,-0.3525 -7.755,-2.115 -7.755,-8.8125l0,-93.4125c10.9275,-10.2225 34.1925,-29.9625 51.1125,-29.9625c19.74,0 21.5025,21.855 21.5025,35.25l0,88.125c0,6.6975 -3.1725,8.46 -8.1075,8.8125l-10.9275,0c-1.41,1.41 -1.7625,2.82 -1.7625,4.23c-0.3525,1.41 0.3525,2.82 1.7625,4.5825l66.975,0c1.0575,-1.0575 2.4675,-2.82 2.4675,-4.23c0,-1.7625 -0.3525,-3.1725 -2.4675,-4.5825l-11.28,0c-4.5825,-0.3525 -7.755,-2.115 -7.755,-8.8125l0,-96.9375c0,-23.265 -16.5675,-44.0625 -43.3575,-44.0625c-26.085,0 -45.12,26.4375 -58.1625,44.0625l0,-26.4375c0,-5.9925 1.41,-11.985 3.8775,-17.625z"/>
    <path fill="#722f37" id="path4509" d="m1089.394187,88.124948c-49.35,0 -80.7225,39.48 -80.7225,81.075c0,41.595 31.3725,81.075 80.7225,81.075c49.7025,0 81.075,-39.48 81.075,-81.075c0,-41.595 -31.3725,-81.075 -81.075,-81.075zm-6.345,9.165c49.35,0 55.3425,44.7675 55.3425,81.4275c0,23.6175 -10.575,62.3925 -41.595,62.3925c-46.1775,0 -54.99,-45.825 -54.99,-80.37c0,-22.9125 10.9275,-63.45 41.2425,-63.45z"/>
   </g>
   <rect y="-865.096309" x="-1158.939584" height="437.14285" width="1571.4286" id="rect4444"/>
   <rect y="-910.810579" x="-1333.225184" height="94.285713" width="302.85715" id="rect4460"/>
  </g>
 </g>
</svg>