<?xml version="1.0" standalone="no"?>
<!DOCTYPE svg PUBLIC "-//W3C//DTD SVG 20010904//EN"
 "http://www.w3.org/TR/2001/REC-SVG-20010904/DTD/svg10.dtd">
<svg version="1.0" xmlns="http://www.w3.org/2000/svg"
 width="700.000000pt" height="700.000000pt" viewBox="0 0 700.000000 700.000000"
 preserveAspectRatio="xMidYMid meet">
<metadata>
Created by potrace 1.11, written by Peter Selinger 2001-2013
</metadata>
<g transform="translate(0.000000,700.000000) scale(0.100000,-0.100000)"
fill="#000000" stroke="none">
<path d="M3340 6981 c-30 -10 -95 -34 -145 -54 -163 -65 -202 -71 -475 -72
-211 -1 -252 -3 -295 -19 -92 -34 -149 -68 -240 -144 -163 -137 -274 -194
-473 -246 -148 -39 -185 -53 -249 -98 -87 -59 -133 -110 -205 -227 -98 -158
-220 -280 -380 -379 -194 -120 -260 -211 -319 -436 -57 -218 -113 -328 -248
-486 -75 -87 -108 -144 -144 -240 -19 -50 -21 -79 -22 -300 -2 -283 -6 -308
-86 -510 l-54 -135 0 -135 0 -135 48 -119 c86 -213 91 -236 92 -521 1 -242 2
-252 26 -316 35 -91 66 -140 147 -236 125 -146 185 -265 237 -465 38 -145 59
-194 120 -277 51 -70 100 -110 225 -186 136 -83 265 -215 358 -366 75 -121
125 -175 216 -234 68 -43 105 -58 235 -90 189 -47 315 -112 466 -240 92 -78
148 -112 245 -148 50 -19 80 -21 305 -22 285 -1 308 -6 521 -92 l119 -48 135
0 135 0 115 47 c208 86 240 92 525 93 242 1 252 2 316 26 91 35 140 66 237
148 146 124 277 190 478 241 127 33 193 62 270 120 63 47 103 96 175 214 74
122 199 252 313 326 164 107 204 138 249 196 66 83 94 146 132 292 53 203 109
313 247 477 78 93 106 139 141 235 19 50 21 78 22 300 1 281 4 302 87 512 50
128 52 137 56 248 4 126 -1 148 -82 357 -56 143 -69 244 -61 458 5 148 3 191
-10 240 -26 99 -78 195 -156 285 -133 155 -191 269 -243 469 -40 152 -59 197
-118 277 -54 72 -100 110 -228 189 -137 85 -266 216 -358 366 -72 117 -118
168 -205 227 -64 45 -101 59 -249 98 -200 52 -313 111 -468 244 -94 80 -208
141 -303 160 -40 8 -114 10 -235 5 -214 -8 -315 8 -494 78 -62 25 -131 50
-153 56 -63 17 -231 13 -295 -8z m560 -296 c695 -89 1331 -394 1824 -875 161
-157 253 -261 363 -410 326 -443 521 -932 599 -1505 14 -98 18 -196 18 -395 0
-283 -11 -403 -60 -648 -97 -483 -317 -951 -635 -1353 -105 -134 -374 -403
-508 -508 -471 -372 -1004 -597 -1607 -678 -180 -24 -608 -24 -788 0 -604 81
-1136 305 -1607 678 -134 105 -403 374 -509 508 -373 473 -596 1001 -677 1609
-24 177 -24 607 0 785 85 637 332 1201 737 1680 121 145 363 373 511 484 498
374 1040 583 1669 643 136 13 523 4 670 -15z"/>
<path d="M3350 6575 c-20 -25 -8 -50 25 -50 21 0 31 5 33 18 4 21 -14 47 -33
47 -7 0 -18 -7 -25 -15z"/>
<path d="M3510 6575 c-18 -22 -8 -50 19 -50 32 0 49 28 32 49 -17 20 -35 20
-51 1z"/>
<path d="M3195 6566 c-12 -9 -15 -19 -10 -35 9 -30 59 -26 63 6 4 29 -28 47
-53 29z"/>
<path d="M3667 6573 c-12 -11 -8 -40 7 -52 28 -23 68 17 45 45 -12 15 -41 19
-52 7z"/>
<path d="M3832 6561 c-21 -13 -11 -55 14 -59 30 -4 48 21 34 47 -11 22 -27 26
-48 12z"/>
<path d="M3042 6551 c-8 -4 -12 -19 -10 -32 2 -18 9 -24 28 -24 19 0 26 6 28
24 3 20 -11 41 -28 41 -3 0 -11 -4 -18 -9z"/>
<path d="M3985 6534 c-18 -18 -16 -33 7 -47 35 -22 66 21 36 51 -16 16 -23 15
-43 -4z"/>
<path d="M2873 6514 c-15 -39 38 -67 60 -32 8 12 7 21 -2 32 -17 21 -50 20
-58 0z"/>
<path d="M4140 6505 c-19 -23 -8 -50 22 -53 34 -4 50 34 22 55 -23 17 -29 16
-44 -2z"/>
<path d="M2725 6484 c-9 -9 -14 -21 -12 -27 6 -18 33 -31 51 -24 21 8 21 53 0
61 -21 8 -20 8 -39 -10z"/>
<path d="M4289 6464 c-17 -21 0 -49 32 -49 27 0 37 28 19 50 -16 19 -34 19
-51 -1z"/>
<path d="M2564 6428 c-7 -22 19 -52 40 -45 17 6 29 34 23 51 -10 24 -54 21
-63 -6z"/>
<path d="M4441 6416 c-9 -11 -10 -20 -1 -35 19 -36 64 -20 58 20 -4 28 -39 37
-57 15z"/>
<path d="M2415 6379 c-10 -30 18 -58 43 -43 9 6 17 22 17 35 0 34 -50 41 -60
8z"/>
<path d="M4591 6361 c-15 -27 -3 -51 25 -51 28 0 42 25 27 49 -15 24 -40 25
-52 2z"/>
<path d="M2271 6327 c-22 -27 10 -64 45 -50 23 9 14 57 -12 61 -11 2 -26 -3
-33 -11z"/>
<path d="M4745 6306 c-27 -20 -15 -51 20 -51 23 0 31 5 33 22 4 29 -28 47 -53
29z"/>
<path d="M2131 6266 c-19 -23 -4 -56 25 -56 28 0 42 25 27 49 -14 22 -37 25
-52 7z"/>
<path d="M4885 6236 c-27 -20 -15 -51 20 -51 23 0 31 5 33 22 4 29 -28 47 -53
29z"/>
<path d="M1987 6194 c-13 -14 -7 -43 12 -53 24 -13 55 8 50 35 -4 19 -48 32
-62 18z"/>
<path d="M5019 6154 c-16 -20 -1 -48 29 -52 25 -4 39 32 22 53 -16 19 -34 19
-51 -1z"/>
<path d="M1847 6106 c-14 -35 23 -67 50 -45 8 7 13 22 11 33 -4 26 -52 35 -61
12z"/>
<path d="M5160 6075 c-19 -23 -8 -50 20 -50 16 0 26 6 28 18 4 18 -14 47 -28
47 -4 0 -13 -7 -20 -15z"/>
<path d="M1726 6027 c-26 -19 -13 -57 20 -57 28 0 42 25 27 48 -13 22 -26 24
-47 9z"/>
<path d="M5287 5983 c-13 -12 -7 -51 9 -57 21 -8 20 -8 38 10 12 12 13 20 6
35 -10 19 -40 26 -53 12z"/>
<path d="M1591 5922 c-11 -21 3 -52 24 -52 26 0 46 29 35 51 -13 24 -46 25
-59 1z"/>
<path d="M5410 5885 c-20 -25 -8 -50 25 -50 21 0 31 5 33 18 4 21 -14 47 -33
47 -7 0 -18 -7 -25 -15z"/>
<path d="M1472 5828 c-26 -26 1 -65 38 -53 16 5 20 14 18 33 -3 30 -35 41 -56
20z"/>
<path d="M3440 5834 c-8 -1 -35 -5 -60 -9 -25 -3 -51 -9 -58 -13 -23 -15 -44
-122 -37 -192 7 -76 6 -391 -4 -710 -8 -270 -11 -278 -129 -404 -92 -98 -151
-191 -181 -290 -23 -76 -47 -255 -38 -280 6 -14 68 -16 583 -16 l577 0 -6 108
c-11 208 -100 396 -241 514 -66 56 -96 124 -107 250 -5 57 -11 299 -13 540 -3
340 -7 443 -18 465 -11 24 -21 29 -68 35 -57 6 -174 8 -200 2z"/>
<path d="M5523 5774 c-8 -22 10 -49 32 -49 10 0 22 7 28 16 15 24 1 49 -28 49
-15 0 -28 -7 -32 -16z"/>
<path d="M1354 5715 c-10 -25 4 -45 30 -45 27 0 42 26 25 46 -15 19 -48 18
-55 -1z"/>
<path d="M5641 5661 c-8 -15 -7 -23 5 -35 26 -27 58 -12 52 25 -4 31 -42 38
-57 10z"/>
<path d="M1241 5602 c-13 -25 8 -56 35 -50 29 5 27 62 -3 66 -13 2 -26 -4 -32
-16z"/>
<path d="M5750 5549 c-9 -15 -8 -24 1 -35 18 -22 53 -13 57 15 6 40 -39 56
-58 20z"/>
<path d="M2022 5513 c-64 -8 -64 -6 -68 -475 -2 -233 -6 -445 -10 -473 -9 -70
-35 -115 -114 -201 -112 -120 -165 -232 -177 -370 l-6 -74 503 0 503 0 -7 65
c-15 151 -75 281 -179 388 -80 83 -94 102 -108 148 -15 47 -38 749 -26 773 9
19 5 98 -10 171 -6 30 -14 41 -33 46 -26 7 -213 9 -268 2z"/>
<path d="M4765 5515 c-5 -2 -22 -6 -37 -9 -30 -7 -34 -15 -47 -109 -6 -44 -6
-78 0 -96 6 -18 7 -160 1 -397 -11 -426 -9 -419 -106 -520 -127 -131 -196
-279 -196 -419 l0 -45 500 0 500 0 0 24 c0 47 -29 173 -53 233 -32 79 -77 144
-150 216 -91 89 -98 113 -107 356 -8 194 -12 461 -8 596 1 33 -3 82 -8 110 -7
40 -14 50 -34 56 -25 7 -236 10 -255 4z"/>
<path d="M1134 5485 c-14 -37 26 -69 53 -42 22 22 8 57 -23 57 -14 0 -27 -7
-30 -15z"/>
<path d="M5863 5443 c-19 -7 -16 -53 3 -60 18 -7 45 6 51 24 4 11 -23 44 -35
42 -4 0 -13 -3 -19 -6z"/>
<path d="M1039 5364 c-16 -20 -1 -48 29 -52 25 -4 39 32 22 53 -16 19 -34 19
-51 -1z"/>
<path d="M5952 5308 c-26 -26 1 -65 38 -53 16 5 20 14 18 33 -3 30 -35 41 -56
20z"/>
<path d="M944 5236 c-11 -28 1 -51 25 -51 32 0 49 28 32 49 -17 20 -50 21 -57
2z"/>
<path d="M6039 5174 c-17 -21 0 -49 32 -49 18 0 25 6 27 24 6 38 -34 55 -59
25z"/>
<path d="M866 5107 c-26 -19 -13 -57 20 -57 28 0 42 25 27 48 -13 22 -26 24
-47 9z"/>
<path d="M6126 5044 c-9 -8 -16 -18 -16 -22 1 -38 63 -42 68 -5 4 30 -31 49
-52 27z"/>
<path d="M779 4964 c-17 -21 0 -49 32 -49 18 0 25 6 27 24 6 38 -34 55 -59 25z"/>
<path d="M6205 4906 c-27 -20 -15 -51 20 -51 23 0 31 5 33 22 4 29 -28 47 -53
29z"/>
<path d="M711 4826 c-19 -23 -4 -56 25 -56 28 0 42 25 27 49 -14 22 -37 25
-52 7z"/>
<path d="M6267 4763 c-13 -12 -7 -51 8 -57 34 -13 66 24 44 50 -12 15 -41 19
-52 7z"/>
<path d="M643 4674 c-15 -39 38 -67 60 -32 8 12 7 21 -2 32 -17 21 -50 20 -58
0z"/>
<path d="M6330 4615 c-19 -23 -8 -50 22 -53 19 -2 28 2 33 18 12 39 -29 66
-55 35z"/>
<path d="M585 4519 c-10 -30 18 -58 43 -43 9 6 17 22 17 35 0 34 -50 41 -60 8z"/>
<path d="M6380 4465 c-20 -25 -8 -50 25 -50 21 0 31 5 33 18 4 21 -14 47 -33
47 -7 0 -18 -7 -25 -15z"/>
<path d="M542 4378 c-26 -26 1 -65 38 -53 16 5 20 14 18 33 -3 30 -35 41 -56
20z"/>
<path d="M6430 4314 c-19 -22 -7 -49 21 -52 28 -3 43 16 33 42 -8 20 -41 26
-54 10z"/>
<path d="M499 4224 c-17 -21 0 -49 32 -49 18 0 25 6 27 24 6 38 -34 55 -59 25z"/>
<path d="M6462 4158 c-26 -26 1 -65 38 -53 16 5 20 14 18 33 -3 30 -35 41 -56
20z"/>
<path d="M467 4074 c-13 -14 -7 -43 12 -53 24 -13 55 8 50 35 -4 19 -48 32
-62 18z"/>
<path d="M6495 4006 c-27 -20 -15 -51 20 -51 23 0 31 5 33 22 4 29 -28 47 -53
29z"/>
<path d="M453 3923 c-19 -7 -16 -53 3 -60 18 -7 45 6 51 24 4 11 -23 44 -35
42 -4 0 -13 -3 -19 -6z"/>
<path d="M6509 3844 c-17 -21 0 -49 32 -49 27 0 37 28 19 50 -16 19 -34 19
-51 -1z"/>
<path d="M430 3756 c-27 -33 18 -72 48 -42 13 13 14 20 6 34 -15 23 -38 26
-54 8z"/>
<path d="M4204 3704 c-106 -38 -184 -154 -184 -275 0 -85 22 -147 72 -204 58
-66 106 -88 206 -93 102 -6 156 13 224 76 61 57 88 126 88 226 0 124 -58 214
-172 266 -52 24 -173 26 -234 4z m164 -38 c89 -47 137 -185 112 -328 -14 -77
-38 -121 -82 -148 -89 -54 -197 4 -234 126 -16 55 -18 183 -3 237 11 41 61
104 93 117 33 13 84 11 114 -4z"/>
<path d="M5445 3706 c-51 -23 -87 -70 -92 -120 -3 -24 -3 -56 1 -70 10 -40 63
-93 132 -132 112 -62 145 -134 89 -189 -54 -55 -148 -18 -190 75 -17 38 -37
51 -50 31 -3 -6 0 -41 6 -80 l12 -70 50 -12 c152 -36 268 12 298 124 23 86
-20 152 -141 216 -89 47 -110 71 -110 120 0 106 144 111 181 6 9 -24 19 -35
32 -35 18 0 19 5 14 66 -4 37 -9 69 -12 72 -13 14 -191 12 -220 -2z"/>
<path d="M732 3693 c2 -10 13 -19 25 -21 11 -2 28 -11 36 -20 14 -15 84 -227
147 -445 21 -72 25 -78 48 -75 22 3 30 19 88 188 35 102 65 189 67 194 2 5 35
-78 73 -185 64 -176 73 -194 95 -197 24 -3 27 5 103 245 43 136 84 256 91 266
7 10 26 22 42 26 15 4 29 15 31 24 3 15 -9 17 -108 17 -101 0 -111 -2 -108
-17 2 -11 14 -19 30 -21 51 -6 53 -21 14 -154 -19 -68 -42 -141 -49 -163 l-15
-40 -11 27 c-5 15 -31 85 -56 155 -80 221 -76 213 -99 213 -19 0 -29 -24 -86
-202 l-65 -201 -49 166 c-26 92 -46 173 -43 181 3 8 16 16 29 18 12 2 24 11
26 21 3 15 -8 17 -128 17 -120 0 -131 -2 -128 -17z"/>
<path d="M1600 3690 c0 -14 7 -20 23 -20 45 0 47 -11 47 -251 0 -243 1 -239
-51 -239 -12 0 -19 -7 -19 -20 0 -19 7 -20 130 -20 123 0 130 1 130 20 0 14
-7 20 -23 20 -45 0 -47 11 -47 245 0 234 2 245 47 245 16 0 23 6 23 20 0 19
-7 20 -130 20 -123 0 -130 -1 -130 -20z"/>
<path d="M1920 3690 c0 -14 7 -20 23 -20 59 -1 67 -29 67 -247 0 -208 -6 -236
-53 -241 -19 -2 -27 -9 -27 -23 0 -18 8 -19 111 -19 98 0 110 2 107 17 -2 9
-18 21 -36 25 -22 6 -36 17 -43 35 -5 14 -8 97 -7 184 l3 158 178 -215 c144
-173 182 -214 202 -214 l25 0 0 243 c0 133 3 252 6 265 4 14 18 25 38 30 17 5
32 16 34 25 3 15 -9 17 -113 17 -106 0 -116 -2 -113 -17 2 -12 15 -20 38 -23
54 -8 61 -33 58 -205 l-3 -147 -165 195 -165 195 -82 1 c-77 1 -83 -1 -83 -19z"/>
<path d="M2602 3693 c2 -11 15 -20 33 -23 l30 -5 3 -237 2 -238 -27 -6 c-48
-10 -53 -13 -53 -29 0 -13 30 -15 225 -15 l224 0 11 43 c6 23 15 56 20 74 7
26 5 32 -11 36 -15 4 -24 -4 -38 -31 -31 -60 -55 -76 -125 -80 -101 -7 -106
-1 -106 124 l0 105 63 -3 c61 -3 62 -4 80 -40 10 -21 25 -38 33 -38 11 0 14
20 14 100 0 91 -2 100 -19 100 -12 0 -21 -11 -27 -32 -10 -33 -10 -33 -77 -36
l-68 -3 3 103 3 103 66 0 c76 0 101 -15 119 -71 12 -36 17 -39 38 -25 10 6 11
25 6 74 l-7 67 -209 0 c-194 0 -209 -1 -206 -17z"/>
<path d="M3322 3693 c2 -11 15 -20 33 -23 l30 -5 3 -234 c3 -249 2 -251 -45
-251 -16 0 -23 -6 -23 -20 0 -19 7 -20 130 -20 123 0 130 1 130 20 0 14 -7 20
-23 20 -41 0 -47 17 -47 132 l0 108 125 0 125 0 0 -103 c0 -112 -8 -133 -50
-139 -14 -2 -26 -11 -28 -20 -3 -16 8 -18 133 -18 125 0 136 2 133 18 -2 9
-14 19 -28 20 -49 7 -50 10 -50 247 0 237 1 240 50 247 14 1 26 11 28 21 3 15
-8 17 -133 17 -125 0 -136 -2 -133 -17 2 -10 14 -19 28 -21 40 -5 50 -28 50
-119 l0 -83 -125 0 -125 0 0 89 c0 92 5 105 45 113 11 2 21 11 23 21 3 15 -9
17 -128 17 -120 0 -131 -2 -128 -17z"/>
<path d="M4680 3690 c0 -14 7 -20 24 -20 13 0 28 -6 34 -12 5 -8 12 -92 14
-193 3 -164 5 -184 27 -228 35 -71 85 -101 179 -106 120 -6 183 23 224 102 19
37 23 64 28 224 7 193 12 213 56 213 17 0 24 6 24 20 0 19 -7 20 -111 20 -99
0 -110 -2 -107 -17 2 -10 17 -20 37 -24 18 -4 37 -13 42 -21 13 -20 11 -315
-2 -359 -26 -85 -120 -123 -204 -83 -64 30 -75 69 -75 269 0 181 3 195 47 195
16 0 23 6 23 20 0 19 -7 20 -130 20 -123 0 -130 -1 -130 -20z"/>
<path d="M5772 3693 c2 -11 15 -20 32 -23 24 -4 32 -12 39 -39 10 -39 6 -426
-5 -436 -4 -4 -22 -10 -40 -14 -19 -4 -34 -14 -36 -24 -3 -16 15 -17 222 -17
l225 0 12 43 c27 99 28 105 8 110 -15 4 -24 -4 -39 -33 -31 -61 -63 -80 -132
-80 -96 0 -98 3 -98 126 l0 105 63 -3 c61 -3 62 -4 80 -40 10 -21 25 -38 33
-38 11 0 14 20 14 100 0 89 -2 100 -18 100 -12 0 -21 -11 -27 -32 -10 -33 -11
-33 -78 -36 l-68 -3 3 103 3 103 66 0 c76 0 100 -15 121 -71 13 -37 16 -38 37
-25 10 7 12 24 6 75 l-7 66 -210 0 c-194 0 -209 -1 -206 -17z"/>
<path d="M6521 3682 c-13 -25 8 -56 35 -50 29 5 27 62 -3 66 -13 2 -26 -4 -32
-16z"/>
<path d="M421 3596 c-26 -31 14 -71 45 -45 21 17 14 53 -12 57 -11 2 -26 -4
-33 -12z"/>
<path d="M6524 3526 c-11 -28 1 -51 28 -54 31 -4 48 29 28 53 -16 19 -49 19
-56 1z"/>
<path d="M415 3429 c-10 -30 18 -58 43 -43 9 6 17 22 17 35 0 34 -50 41 -60 8z"/>
<path d="M6526 3364 c-22 -21 -3 -56 27 -52 37 5 33 67 -5 68 -4 0 -14 -7 -22
-16z"/>
<path d="M427 3284 c-13 -14 -7 -43 12 -53 24 -13 55 8 50 35 -4 19 -48 32
-62 18z"/>
<path d="M6509 3204 c-17 -21 0 -49 32 -49 27 0 37 28 19 50 -16 19 -34 19
-51 -1z"/>
<path d="M453 3133 c-19 -7 -16 -53 3 -60 18 -7 45 6 51 24 4 11 -23 44 -35
42 -4 0 -13 -3 -19 -6z"/>
<path d="M6491 3046 c-26 -31 14 -71 45 -45 8 7 14 22 12 33 -4 26 -40 33 -57
12z"/>
<path d="M470 2966 c-27 -33 18 -72 48 -42 13 13 14 20 6 34 -15 23 -38 26
-54 8z"/>
<path d="M1661 2438 c0 -571 9 -795 32 -851 35 -81 201 -115 521 -104 197 6
324 27 378 62 64 42 68 73 68 479 0 193 -3 476 -7 629 l-6 277 -494 0 -493 0
1 -492z"/>
<path d="M2947 2223 c2 -390 8 -750 14 -802 13 -123 35 -173 88 -200 137 -71
701 -76 924 -9 55 17 101 65 116 121 12 50 16 1403 4 1530 l-6 67 -572 0 -571
0 3 -707z"/>
<path d="M4390 2346 c0 -729 5 -776 91 -819 68 -33 148 -41 389 -41 314 -1
446 25 487 93 32 52 35 114 27 734 l-7 617 -493 0 -494 0 0 -584z"/>
<path d="M6466 2894 c-9 -8 -16 -19 -16 -24 0 -5 7 -16 16 -24 19 -20 54 -5
54 24 0 29 -35 44 -54 24z"/>
<path d="M497 2806 c-14 -35 23 -67 50 -45 8 7 13 22 11 33 -4 26 -52 35 -61
12z"/>
<path d="M6424 2736 c-11 -28 1 -51 25 -51 32 0 49 28 32 49 -17 20 -50 21
-57 2z"/>
<path d="M541 2656 c-9 -11 -10 -20 -1 -35 19 -36 64 -20 58 20 -4 28 -39 37
-57 15z"/>
<path d="M6379 2584 c-17 -21 0 -49 32 -49 18 0 25 6 27 24 6 38 -34 55 -59
25z"/>
<path d="M592 2508 c-26 -26 1 -65 38 -53 16 5 20 14 18 33 -3 30 -35 41 -56
20z"/>
<path d="M6329 2434 c-16 -20 -1 -48 29 -52 25 -4 39 32 22 53 -16 19 -34 19
-51 -1z"/>
<path d="M644 2355 c-14 -37 26 -69 53 -42 22 22 8 57 -23 57 -14 0 -27 -7
-30 -15z"/>
<path d="M6264 2285 c-14 -37 26 -69 53 -42 22 22 8 57 -23 57 -14 0 -27 -7
-30 -15z"/>
<path d="M710 2209 c-9 -15 -8 -24 1 -35 18 -22 53 -13 57 15 6 40 -39 56 -58
20z"/>
<path d="M6199 2144 c-17 -21 0 -49 32 -49 27 0 37 28 19 50 -16 19 -34 19
-51 -1z"/>
<path d="M786 2074 c-22 -21 -3 -56 27 -52 37 5 33 67 -5 68 -4 0 -14 -7 -22
-16z"/>
<path d="M6132 2011 c-20 -12 -11 -55 12 -59 27 -6 48 25 35 49 -10 20 -26 24
-47 10z"/>
<path d="M861 1932 c-13 -25 8 -56 35 -50 29 5 27 62 -3 66 -13 2 -26 -4 -32
-16z"/>
<path d="M6041 1867 c-22 -27 10 -64 45 -50 23 9 14 57 -12 61 -11 2 -26 -3
-33 -11z"/>
<path d="M950 1805 c-20 -25 -8 -50 25 -50 21 0 31 5 33 18 4 21 -14 47 -33
47 -7 0 -18 -7 -25 -15z"/>
<path d="M5951 1731 c-9 -15 -7 -23 5 -36 25 -25 49 -15 49 20 0 23 -5 31 -22
33 -14 2 -26 -4 -32 -17z"/>
<path d="M1039 1674 c-17 -21 0 -49 32 -49 27 0 37 28 19 50 -16 19 -34 19
-51 -1z"/>
<path d="M5867 1619 c-23 -13 -22 -46 2 -59 22 -11 51 9 51 35 0 21 -32 35
-53 24z"/>
<path d="M1137 1554 c-27 -27 20 -77 49 -53 23 19 13 53 -16 57 -14 2 -29 0
-33 -4z"/>
<path d="M5757 1493 c-12 -11 -8 -40 7 -52 28 -23 68 17 45 45 -12 15 -41 19
-52 7z"/>
<path d="M1250 1435 c-18 -21 -8 -50 19 -53 37 -6 52 26 25 52 -19 20 -28 20
-44 1z"/>
<path d="M5652 1381 c-8 -4 -12 -19 -10 -32 4 -29 45 -34 61 -7 19 30 -19 60
-51 39z"/>
<path d="M1353 1314 c-6 -17 6 -45 23 -51 21 -7 47 23 40 45 -9 27 -53 30 -63
6z"/>
<path d="M5529 1264 c-17 -21 0 -49 32 -49 18 0 25 6 27 24 6 38 -34 55 -59
25z"/>
<path d="M1476 1214 c-22 -21 -3 -56 27 -52 37 5 33 67 -5 68 -4 0 -14 -7 -22
-16z"/>
<path d="M5416 1164 c-9 -8 -16 -18 -16 -22 1 -38 63 -42 68 -5 4 30 -31 49
-52 27z"/>
<path d="M1605 1116 c-25 -18 -15 -50 16 -54 28 -3 43 16 33 42 -8 21 -30 26
-49 12z"/>
<path d="M5290 1065 c-18 -22 -8 -50 19 -50 32 0 49 28 32 49 -17 20 -35 20
-51 1z"/>
<path d="M1721 1012 c-12 -23 4 -52 29 -52 25 0 41 30 29 53 -13 22 -46 22
-58 -1z"/>
<path d="M5160 975 c-19 -23 -8 -50 22 -53 19 -2 28 2 33 18 12 39 -29 66 -55
35z"/>
<path d="M1857 933 c-12 -11 -8 -40 7 -52 26 -22 63 10 50 44 -6 15 -45 21
-57 8z"/>
<path d="M5021 887 c-22 -27 10 -64 45 -50 23 9 14 57 -12 61 -11 2 -26 -3
-33 -11z"/>
<path d="M1991 847 c-22 -27 10 -64 45 -50 23 9 14 57 -12 61 -11 2 -26 -3
-33 -11z"/>
<path d="M4893 823 c-19 -7 -16 -53 3 -60 18 -7 45 6 51 24 4 11 -23 44 -35
42 -4 0 -13 -3 -19 -6z"/>
<path d="M2131 772 c-12 -23 4 -52 29 -52 25 0 41 30 29 53 -13 22 -46 22 -58
-1z"/>
<path d="M4745 744 c-9 -9 -14 -21 -12 -27 6 -18 33 -31 51 -24 21 8 21 53 0
61 -21 8 -20 8 -39 -10z"/>
<path d="M2277 714 c-13 -14 -7 -43 12 -53 24 -13 55 8 50 35 -4 19 -48 32
-62 18z"/>
<path d="M4607 689 c-39 -22 -4 -79 35 -58 10 5 18 18 18 29 0 25 -30 41 -53
29z"/>
<path d="M2430 655 c-19 -23 -8 -50 22 -53 34 -4 50 34 22 55 -23 17 -29 16
-44 -2z"/>
<path d="M4450 626 c-27 -33 18 -72 48 -42 13 13 14 20 6 34 -15 23 -38 26
-54 8z"/>
<path d="M2585 606 c-25 -18 -15 -50 16 -54 28 -3 43 16 33 42 -8 21 -30 26
-49 12z"/>
<path d="M4293 574 c-6 -17 6 -45 23 -51 21 -7 47 23 40 45 -9 27 -53 30 -63
6z"/>
<path d="M2725 549 c-10 -30 18 -58 43 -43 9 6 17 22 17 35 0 34 -50 41 -60 8z"/>
<path d="M4136 535 c-8 -22 -8 -21 10 -39 21 -22 56 -3 52 27 -4 28 -52 37
-62 12z"/>
<path d="M2892 531 c-21 -13 -11 -55 15 -59 30 -4 49 31 27 52 -18 18 -24 19
-42 7z"/>
<path d="M3987 514 c-13 -14 -7 -43 12 -53 24 -13 55 8 50 35 -4 19 -48 32
-62 18z"/>
<path d="M3041 496 c-26 -31 14 -71 45 -45 21 17 14 53 -12 57 -11 2 -26 -4
-33 -12z"/>
<path d="M3831 486 c-26 -31 14 -71 45 -45 21 17 14 53 -12 57 -11 2 -26 -4
-33 -12z"/>
<path d="M3193 474 c-6 -17 6 -45 23 -51 21 -7 47 23 40 45 -9 27 -53 30 -63
6z"/>
<path d="M3675 474 c-9 -9 -14 -21 -12 -27 6 -18 33 -31 51 -24 21 8 21 53 0
61 -21 8 -20 8 -39 -10z"/>
<path d="M3357 473 c-12 -11 -8 -40 7 -52 28 -23 68 17 45 45 -12 15 -41 19
-52 7z"/>
<path d="M3517 473 c-16 -15 -6 -52 15 -59 28 -9 52 20 37 47 -10 19 -39 25
-52 12z"/>
</g>
</svg>
